<?xml version="1.0" encoding="UTF-8" standalone="no"?>
<!-- Created with Inkscape (http://www.inkscape.org/) -->

<svg
   xmlns:dc="http://purl.org/dc/elements/1.1/"
   xmlns:cc="http://creativecommons.org/ns#"
   xmlns:rdf="http://www.w3.org/1999/02/22-rdf-syntax-ns#"
   xmlns:svg="http://www.w3.org/2000/svg"
   xmlns="http://www.w3.org/2000/svg"
   xmlns:sodipodi="http://sodipodi.sourceforge.net/DTD/sodipodi-0.dtd"
   xmlns:inkscape="http://www.inkscape.org/namespaces/inkscape"
   version="1.1"
   id="svg3822"
   width="612"
   height="792"
   viewBox="0 0 612 792"
   sodipodi:docname="podcast.svg"
   inkscape:version="0.92.2 (5c3e80d, 2017-08-06)">
  <metadata
     id="metadata3828">
    <rdf:RDF>
      <cc:Work
         rdf:about="">
        <dc:format>image/svg+xml</dc:format>
        <dc:type
           rdf:resource="http://purl.org/dc/dcmitype/StillImage" />
        <dc:title></dc:title>
      </cc:Work>
    </rdf:RDF>
  </metadata>
  <defs
     id="defs3826" />
  <sodipodi:namedview
     pagecolor="#ffffff"
     bordercolor="#666666"
     borderopacity="1"
     objecttolerance="10"
     gridtolerance="10"
     guidetolerance="10"
     inkscape:pageopacity="0"
     inkscape:pageshadow="2"
     inkscape:window-width="912"
     inkscape:window-height="710"
     id="namedview3824"
     showgrid="false"
     inkscape:pagecheckerboard="true"
     inkscape:zoom="0.48889803"
     inkscape:cx="340.17621"
     inkscape:cy="533.70407"
     inkscape:window-x="318"
     inkscape:window-y="576"
     inkscape:window-maximized="0"
     inkscape:current-layer="g845" />
  <g
     transform="matrix(0.46047954,0,0,0.42393895,87.81666,172.99511)"
     id="g847">
    <g
       transform="matrix(0.1,0,0,-0.1,0,511)"
       id="g845">
      <path
         inkscape:connector-curvature="0"
         d="m 4752.9497,-4469.2033 c 0,0 943.6914,0 943.6914,2957.2109 0,550.5472 -422.9232,999.01796 -943.6914,999.01796 -520.7668,0 -944.0475,-448.47076 -944.0475,-999.01796 0,-2957.2109 944.0475,-2957.2109 944.0475,-2957.2109 z m 1157.6602,1007.7362 c 41.2178,169.602 73.4749,339.9762 98.5628,512.6023 l 18.9953,136.5952 c 41.2177,18.9645 82.4342,37.189 124.0094,56.9094 655.1725,314.1596 1206.7622,851.0505 1558.3611,1515.0304 160.2098,304.6853 278.4843,633.64313 348.7333,975.87128 81.3576,382.45722 102.146,781.24083 59.4954,1171.6601 -37.6332,365.39082 -129.3856,722.41742 -275.9749,1057.45492 -166.6613,394.2155 -398.1915,753.5263 -689.5786,1056.3143 -296.7633,313.7734 -647.6444,571.0226 -1030.4251,748.2169 -393.5317,188.181 -825.4156,285.319 -1261.5991,296.7082 -437.2587,11.3713 -873.8011,-62.9897 -1283.8207,-228.7961 -393.5327,-158.9857 -754.8083,-393.4592 -1067.6993,-695.8601 -296.4033,-285.319 -549.7991,-633.6278 -733.3036,-1016.0849 -156.6245,-325.5484 -263.7899,-673.8561 -323.285,-1033.1667 -59.4971,-371.45493 -59.4971,-753.54203 -5.7352,-1130.691112 48.3847,-330.855998 140.1386,-656.387758 275.2584,-964.869088 318.2663,-713.6831 857.6727,-1306.7275 1526.1042,-1667.1801 81,-39.4569 161.6417,-79.6699 248.0187,-119.1268 5.377,-45.9231 16.4876,-97.1383 21.5047,-148.7395 26.88,-166.1921 59.4952,-337.3061 97.1293,-502.7261 -145.5139,51.6013 -291.3862,108.8806 -431.5249,177.5643 -771.2959,370.3128 -1423.5996,1010.0201 -1828.2427,1803.7752 -183.5045,359.3106 -312.8908,741.76789 -393.53272,1142.04732 -92.1104,439.38268 -108.2397,901.89572 -53.7616,1353.02048 53.7616,421.9302 167.01862,838.906 334.39542,1221.7489 199.2758,450.755 479.9096,867.3617 813.9472,1215.6692 328.3022,347.5371 738.3207,638.9359 1186.3315,838.8906 467.0067,207.5471 968.7789,318.7277 1473.4199,325.1779 506.0724,5.6773 1012.1448,-91.0749 1483.4535,-287.6032 453.7461,-188.9527 872.3657,-469.7352 1229.342,-821.8395 345.8639,-339.5744 630.7996,-744.4214 840.8278,-1190.995 177.7685,-376.7785 301.7779,-787.6906 361.2747,-1204.6666 64.5154,-434.05832 64.5154,-879.11907 -5.7351,-1307.49929 -59.4941,-399.52357 -183.5035,-793.36901 -350.8811,-1158.37381 -377.4046,-805.1273 -1003.1868,-1467.5952 -1763.372,-1867.5047 -188.8809,-97.1384 -388.5143,-182.5024 -593.1663,-250.8001 z m 186.3731,1629.6211 3.5832,178.3364 c 0,119.8988 0,239.7815 -16.486,357.7824 -5.3762,45.9232 -16.1286,85.7501 -26.8809,131.2872 199.6334,171.114 366.6522,388.15129 490.6616,633.62719 91.7525,182.50227 161.644,382.45709 199.6334,588.492175 43.3682,228.409435 53.7617,467.821175 21.8635,707.618865 -26.522,211.34308 -81.3576,416.60597 -161.6412,610.86667 -102.1473,233.7336 -242.6442,450.7551 -415.0378,633.6433 -178.13,182.5024 -377.7633,330.8565 -604.2776,439.7529 -248.0188,113.8187 -517.9013,182.1153 -787.4248,188.1797 -269.5235,5.6939 -544.7808,-45.9066 -798.1759,-148.7233 -226.514,-97.138 -436.9003,-234.103 -620.0468,-410.9114 C 3198.8893,1901.281 3048,1695.6486 2940.1184,1461.9149 2848.0079,1273.7185 2783.852,1073.3937 2745.8615,862.43665 c -37.6341,-217.03727 -42.6513,-439.75264 -16.1293,-656.40382 26.8817,-211.3430819 81.0015,-416.99197 161.6432,-610.49668 124.0094,-291.38283 307.1559,-548.26305 534.0281,-759.59005 l -32.6153,-154.0478 c -21.5047,-119.8989 -16.1277,-234.1036 -16.1277,-359.3106 v -160.1279 c -377.7632,245.1059 -690.6541,599.4945 -900.6805,1010.40629 -124.3691,234.10362 -210.3864,485.2736 -259.1308,748.217924 -59.4952,291.399046 -69.8895,593.414206 -32.2571,890.507326 32.2571,268.25246 102.5063,530.81086 205.011,770.97846 124.0092,296.3366 307.1556,570.6536 522.9173,804.7578 221.1386,234.103 479.9097,422.2994 760.1854,553.5704 312.891,148.3541 652.3034,228.4256 992.4349,239.7982 345.505,6.0797 690.6538,-56.9088 1008.204,-188.5669 291.3858,-119.5279 555.892,-296.3364 787.4236,-519.0515 226.1553,-222.7164 420.7713,-484.9045 560.5505,-776.6732 113.2571,-239.7978 199.6347,-496.6619 243.0015,-759.22022 43.3682,-274.33257 53.7617,-553.58732 16.1286,-827.90378 -32.2571,-268.25244 -102.1473,-530.81081 -210.7446,-776.3027 -210.0269,-497.0318 -571.3041,-925.0261 -1013.5802,-1205.0369 z M 4752.9497,1801.119 c 525.0691,0 951.218,-450.7548 951.218,-1007.736 0,-558.89543 -426.1489,-1010.02024 -951.218,-1010.02024 -525.7855,0 -951.5754,451.12481 -951.5754,1004.69602 0,553.58732 425.7899,1005.09872 951.5754,1005.09872 z"
         id="path827"
         style="stroke-width:368.76571655;fill:#ffffff" />
    </g>
  </g>
</svg>
