<svg xmlns="http://www.w3.org/2000/svg" height="512" width="512" style=""><rect id="backgroundrect" width="100%" height="100%" x="0" y="0" fill="none" stroke="none"/><g class="currentLayer" style=""><title>Layer 1</title><path d="m409.7159146632768,216.054838180542 h-308.0050440159416 c-9.178751156256796,0 -16.646739466638564,7.46798831038177 -16.646739466638564,16.646739466638564 v78.23420858412624 c0,8.97304280393064 7.137292705999017,16.305628257917764 16.02961507625878,16.62851199239731 v11.048352468236088 c0,5.702543041782975 4.640151399301887,10.34269510768354 10.34269510768354,10.34269510768354 h16.03221881069362 c5.702543708381653,0 10.34269510768354,-4.640152065900565 10.34269510768354,-10.34269510768354 v-11.032728728429676 h235.8040747445798 v11.032728728429676 c0,5.702543041782975 4.637547664867044,10.34269510768354 10.34269510768354,10.34269510768354 h16.02961507625878 c5.702543041782975,0 10.34269510768354,-4.640152065900565 10.34269510768354,-10.34269510768354 v-11.048352468236088 c8.894926104694605,-0.3228837344795468 16.03221881069362,-7.655469188466668 16.03221881069362,-16.62851199239731 v-78.23420858412624 c0,-9.178751156256796 -7.46798831038177,-16.646739466638564 -16.646739466638564,-16.646739466638564 zm-281.9035395447886,122.5578125113982 c0,0.19008461251974113 -0.15362966403722772,0.3437149431556468 -0.3437149431556468,0.3437149431556468 h-16.03221881069362 c-0.19008461251974113,0 -0.3437149431556468,-0.15363033063590537 -0.3437149431556468,-0.3437149431556468 v-11.032728728429676 h16.719648697004914 zm272.17796882748485,0.3437149431556468 h-16.03221881069362 c-0.19008527911841874,0 -0.3437149431556468,-0.15363033063590537 -0.3437149431556468,-0.3437149431556468 v-11.030124993994832 h16.719648697004914 v11.030124993994832 c0,0.19008461251974113 -0.15623406507074838,0.3437149431556468 -0.3437149431556468,0.3437149431556468 zm9.725570717303752,-21.37282010167837 h-308.0050440159416 c-3.6662927269935612,0 -6.647759302110672,-2.9814665751171106 -6.647759302110672,-6.647759302110672 v-4.892730304448604 h294.24082254990935 c2.7627388840180633,0 4.9994900822639465,-2.239354932680726 4.9994900822639465,-4.9994900822639465 c0,-2.7627395506167414 -2.236751198245883,-4.9994900822639465 -4.9994900822639465,-4.9994900822639465 h-294.24082254990935 v-63.34249811514974 c0,-3.6662927269935612 2.9814665751171106,-6.647759302110672 6.647759302110672,-6.647759302110672 h308.00764775037646 c3.663688992558719,0 6.645155567675829,2.9814665751171106 6.645155567675829,6.647759302110672 v63.34249811514974 h-5.686919968575239 c-2.7627388840180633,0 -4.9994900822639465,2.2367505316472056 -4.9994900822639465,4.9994900822639465 c0,2.7601351495832205 2.236751198245883,4.9994900822639465 4.9994900822639465,4.9994900822639465 h5.686919968575239 v4.892730304448604 c0,3.6662927269935612 -2.9814665751171106,6.647759302110672 -6.647759302110672,6.647759302110672 zm0,0 " id="svg_1" class="" fill="#ffffff" fill-opacity="1"/><path d="m398.43309129351246,261.9301749952929 c-3.547490663097998,0.9162618727095978 -5.687739947101453,4.532904391958202 -4.771478074391855,8.08385242657779 c0.4529448790724137,1.7668292607901797 0.6846038184628837,3.5993538913531338 0.6846038184628837,5.4422506364808605 c0,11.990931856515184 -9.757327345422471,21.744800945272303 -21.744801830416066,21.744800945272303 s-21.74134357375071,-9.75386908875712 -21.74134357375071,-21.744800945272303 c0,-11.987473599849833 9.75386908875712,-21.74134357375071 21.74134357375071,-21.74134357375071 c1.8463550017930754,0 3.6788787472122713,0.22820156786888152 5.442251521624618,0.6846038184628837 c3.5474897779542394,0.9128045011880088 7.171047040246024,-1.2239882964376163 8.083851541434031,-4.774936331057204 c0.9128045011880088,-3.5509471494758307 -1.2239874112938598,-7.171047040246024 -4.774935445913445,-8.083851541434031 c-2.8455991018834013,-0.7330096751964291 -5.791468173899242,-1.102972326888118 -8.751167617145203,-1.102972326888118 c-19.310655608770954,0 -35.01849995466718,15.707844345896227 -35.01849995466718,35.01849995466718 s15.707844345896227,35.01849995466718 35.01849995466718,35.01849995466718 c19.310656493914713,0 35.021958211332525,-15.707844345896227 35.021958211332525,-35.01849995466718 c0,-2.963156814767553 -0.3734209083570347,-5.905568515261804 -1.1064296984097062,-8.751166732001446 c-0.9128045011880088,-3.550948034619589 -4.532904391958202,-5.687740832245212 -8.08385242657779,-4.774936331057204 zm0,0 " id="svg_2" class="" fill="#ffffff" fill-opacity="1"/><path d="m138.18266650604818,259.4795348230492 v-1.5929952112812966 c0,-3.7811355150449417 -3.0648225627589953,-6.842394558717757 -6.842394558717757,-6.842394558717757 s-6.842394558717757,3.0612590436728153 -6.842394558717757,6.842394558717757 v1.5929952112812966 c-8.492409724655035,2.8652527214630608 -14.625618369259206,10.901502808870244 -14.625618369259206,20.345432342607513 c0,11.838768541607756 9.629244386369205,21.468012927976964 21.468012927976964,21.468012927976964 s21.468012927976964,-9.629244386369205 21.468012927976964,-21.468012927976964 c0,-9.443929533737267 -6.133208644604172,-17.48017962114445 -14.625618369259206,-20.345432342607513 zm-6.842394558717757,28.12865615314896 c-4.2943151069487735,0 -7.783223810541449,-3.4889077912734012 -7.783223810541449,-7.783223810541449 c0,-4.2907515878625935 3.492472222678855,-7.783223810541449 7.783223810541449,-7.783223810541449 s7.783223810541449,3.492472222678855 7.783223810541449,7.783223810541449 c0,4.294316019268048 -3.492472222678855,7.783223810541449 -7.783223810541449,7.783223810541449 zm0,0 " id="svg_3" class="" fill="#ffffff" fill-opacity="1"/><path d="m256.74541573715123,259.95848690510377 c-1.0817130913603992,-1.0817130913603992 -2.8355308828042958,-1.0802708992986356 -3.915801782102931,0 l-0.4543196682147755,0.4543196682147755 c-1.1870001271403503,-0.5913364062527307 -2.5023634707232727,-0.9057545830812235 -3.866764298204563,-0.9057545830812235 c-2.320635824972242,0 -4.502811981395167,0.9043123910194585 -6.144131407525494,2.5441896250880216 c-1.641319795355125,1.641319795355125 -2.5456321863745837,3.82349595177805 -2.5456321863745837,6.144131407525494 s0.9043123910194585,4.502811981395167 2.5456321863745837,6.144131407525494 c1.6413194261303272,1.641319795355125 3.823495582553252,2.5441896250880216 6.144131407525494,2.5441896250880216 c2.3206354557474436,0 4.502811612170369,-0.9028698297328965 6.144131407525494,-2.5441896250880216 c2.7013985288898685,-2.7028407209516327 3.240813067120703,-6.754217787480351 1.6326659045349436,-10.003684376196437 l0.46008843646183195,-0.46008843646183195 c1.0817134605851977,-1.0817134605851977 1.0802712685234332,-2.835531252029095 0,-3.9172447126142913 zm-6.009998684386267,10.465215373944831 c-0.5942211596010571,0.5942215288258554 -1.386035554531744,0.9216198034350249 -2.2268870641360006,0.9216198034350249 c-0.8422940708908193,0 -1.6326659045349436,-0.3273982746091689 -2.228329625422563,-0.9216198034350249 c-0.594220790376259,-0.5956633516628216 -0.9216194342102256,-1.3860351853069461 -0.9216194342102256,-2.2283292561977652 c0,-0.8408518788290552 0.3273986438339673,-1.6312233432483831 0.9216194342102256,-2.2268870641360006 c0.5956637208876191,-0.5956633516628216 1.386035554531744,-0.9230619954967878 2.228329625422563,-0.9230619954967878 c0.8408515096042566,0 1.6312237124731812,0.3273986438339673 2.2268870641360006,0.9230619954967878 h0.0014421920617641857 c1.2273840894433348,1.228826281505099 1.2273840894433348,3.2263904080534656 -0.0014421920617641857,4.455216320333766 zm0,0 " id="svg_6" class="selected" fill="#ffffff" fill-opacity="1"/><g class="" id="svg_11"><path d="m221.841756141872,281.8275837898029 h-3.898707874444538 c-2.0158522442828217,0 -3.64791380064986,1.9025774574636658 -3.64791380064986,4.247614788756091 c0,2.3472500554230478 1.6320615563670384,4.247614788756091 3.64791380064986,4.247614788756091 h3.898707874444538 c2.0139524107754436,0 3.64791380064986,-1.9003647333330431 3.64791380064986,-4.247614788756091 c0,-2.345037331292425 -1.6339613898744165,-4.247614788756091 -3.64791380064986,-4.247614788756091 zm0,0 " class="" fill="#ffffff" fill-opacity="1" id="svg_13"/><path d="m197.37355050316012,281.8275918923115 h-3.898707874444538 c-2.0158522442828217,0 -3.64791380064986,1.9025774574636658 -3.64791380064986,4.247614788756091 c0,2.3472500554230478 1.6320615563670384,4.247614788756091 3.64791380064986,4.247614788756091 h3.898707874444538 c2.0139524107754436,0 3.64791380064986,-1.9003647333330431 3.64791380064986,-4.247614788756091 c0,-2.345037331292425 -1.6339613898744165,-4.247614788756091 -3.64791380064986,-4.247614788756091 zm0,0 " class="" fill="#ffffff" fill-opacity="1" id="svg_12"/><path d="m172.1564388719119,281.8275894615589 h-3.898707388056032 c-2.0139528971639504,0 -3.64791380064986,1.9025774574636658 -3.64791380064986,4.247614788756091 c0,2.3472500554230478 1.6339609034859097,4.247614788756091 3.64791380064986,4.247614788756091 h3.898707388056032 c2.015852730671329,0 3.64791380064986,-1.9003647333330431 3.64791380064986,-4.247614788756091 c0,-2.345037331292425 -1.6320610699785316,-4.247614788756091 -3.64791380064986,-4.247614788756091 zm0,0 " id="svg_8" class="" fill="#ffffff" fill-opacity="1"/><path d="m184.76499468753596,281.8275894615589 h-3.898707874444538 c-2.0158522442828217,0 -3.64791380064986,1.9025774574636658 -3.64791380064986,4.247614788756091 c0,2.3472500554230478 1.6320615563670384,4.247614788756091 3.64791380064986,4.247614788756091 h3.898707874444538 c2.0139524107754436,0 3.64791380064986,-1.9003647333330431 3.64791380064986,-4.247614788756091 c0,-2.345037331292425 -1.6339613898744165,-4.247614788756091 -3.64791380064986,-4.247614788756091 zm0,0 " id="svg_9" class="" fill="#ffffff" fill-opacity="1"/><path d="m209.44307032143854,281.8275918923115 h-3.898707874444538 c-2.0158522442828217,0 -3.64791380064986,1.9025774574636658 -3.64791380064986,4.247614788756091 c0,2.3472500554230478 1.6320615563670384,4.247614788756091 3.64791380064986,4.247614788756091 h3.898707874444538 c2.0139524107754436,0 3.64791380064986,-1.9003647333330431 3.64791380064986,-4.247614788756091 c0,-2.345037331292425 -1.6339613898744165,-4.247614788756091 -3.64791380064986,-4.247614788756091 zm0,0 " id="svg_10" class="" fill="#ffffff" fill-opacity="1"/></g><g class="" id="svg_23"><path d="m326.6050846941181,281.8275837898029 h-3.898707874444538 c-2.0158522442828217,0 -3.64791380064986,1.9025774574636658 -3.64791380064986,4.247614788756091 c0,2.3472500554230478 1.6320615563670384,4.247614788756091 3.64791380064986,4.247614788756091 h3.898707874444538 c2.0139524107754436,0 3.64791380064986,-1.9003647333330431 3.64791380064986,-4.247614788756091 c0,-2.345037331292425 -1.6339613898744165,-4.247614788756091 -3.64791380064986,-4.247614788756091 zm0,0 " class="" fill="#ffffff" fill-opacity="1" id="svg_24"/><path d="m302.1368790554062,281.8275918923115 h-3.898707874444538 c-2.0158522442828217,0 -3.64791380064986,1.9025774574636658 -3.64791380064986,4.247614788756091 c0,2.3472500554230478 1.6320615563670384,4.247614788756091 3.64791380064986,4.247614788756091 h3.898707874444538 c2.0139524107754436,0 3.64791380064986,-1.9003647333330431 3.64791380064986,-4.247614788756091 c0,-2.345037331292425 -1.6339613898744165,-4.247614788756091 -3.64791380064986,-4.247614788756091 zm0,0 " class="" fill="#ffffff" fill-opacity="1" id="svg_25"/><path d="m276.91976742415795,281.8275894615589 h-3.898707388056032 c-2.0139528971639504,0 -3.64791380064986,1.9025774574636658 -3.64791380064986,4.247614788756091 c0,2.3472500554230478 1.6339609034859097,4.247614788756091 3.64791380064986,4.247614788756091 h3.898707388056032 c2.015852730671329,0 3.64791380064986,-1.9003647333330431 3.64791380064986,-4.247614788756091 c0,-2.345037331292425 -1.6320610699785316,-4.247614788756091 -3.64791380064986,-4.247614788756091 zm0,0 " id="svg_26" class="" fill="#ffffff" fill-opacity="1"/><path d="m289.528323239782,281.8275894615589 h-3.898707874444538 c-2.0158522442828217,0 -3.64791380064986,1.9025774574636658 -3.64791380064986,4.247614788756091 c0,2.3472500554230478 1.6320615563670384,4.247614788756091 3.64791380064986,4.247614788756091 h3.898707874444538 c2.0139524107754436,0 3.64791380064986,-1.9003647333330431 3.64791380064986,-4.247614788756091 c0,-2.345037331292425 -1.6339613898744165,-4.247614788756091 -3.64791380064986,-4.247614788756091 zm0,0 " id="svg_27" class="" fill="#ffffff" fill-opacity="1"/><path d="m314.20639887368463,281.8275918923115 h-3.898707874444538 c-2.0158522442828217,0 -3.64791380064986,1.9025774574636658 -3.64791380064986,4.247614788756091 c0,2.3472500554230478 1.6320615563670384,4.247614788756091 3.64791380064986,4.247614788756091 h3.898707874444538 c2.0139524107754436,0 3.64791380064986,-1.9003647333330431 3.64791380064986,-4.247614788756091 c0,-2.345037331292425 -1.6339613898744165,-4.247614788756091 -3.64791380064986,-4.247614788756091 zm0,0 " id="svg_28" class="" fill="#ffffff" fill-opacity="1"/></g><path d="m170.08176984166397,236.27029487356663 h-53.43725772306561 c-2.760135816181898,0 -4.9994900822639465,2.236751198245883 -4.9994900822639465,4.9994900822639465 c0,2.7601351495832205 2.2393542660820485,4.9994900822639465 4.9994900822639465,4.9994900822639465 h53.43725772306561 c2.7601351495832205,0 4.9994900822639465,-2.239354932680726 4.9994900822639465,-4.9994900822639465 c0,-2.7627388840180633 -2.239354932680726,-4.9994900822639465 -4.9994900822639465,-4.9994900822639465 zm0,0 " id="svg_7" class="" fill="#ffffff" fill-opacity="1"/><path fill="#ffffff" stroke="#ffffff" stroke-dashoffset="" fill-rule="nonzero" marker-start="" marker-mid="" marker-end="" id="svg_14" d="M144.7350288406556,157.31411366140514 C155.67572945986674,157.31411366140514 165.96240509080022,161.59726643793417 173.6898525067012,169.36736765742438 C181.4350723407643,177.14102336054788 185.6933437318781,187.49878866411885 185.6933437318781,198.52124240686504 L202.55936856557997,198.52124240686504 C202.55936856557997,166.50245385004732 176.61519253580363,140.45875227858832 144.73147435702242,140.45875227858832 L144.73147435702242,157.31411366140514 L144.7350288406556,157.31411366140514 zM144.75635574245092,127.4280152837834 C183.75970463607663,127.4280152837834 215.48347105143523,159.3295058807413 215.48347105143523,198.53901482502727 L232.34238691787127,198.53901482502727 C232.34238691787127,150.03453118312234 193.0511248500491,110.56909941734757 144.75280125881778,110.56909941734757 L144.75280125881778,127.4280152837834 L144.75635574245092,127.4280152837834 zM168.0737683681879,186.7559015850273 C168.0737683681879,193.20728937706454 162.84512294556768,198.4394892833177 156.39728963716374,198.4394892833177 S144.7208109061251,193.20728937706454 144.7208109061251,186.7559015850273 C144.7208109061251,180.3116227602686 149.94945632875863,175.0794228540017 156.39728963716374,175.0794228540017 S168.0737683681879,180.30806827663716 168.0737683681879,186.7559015850273 z" style="color: rgb(0, 0, 0);" class="" fill-opacity="1" stroke-opacity="1"/></g></svg>