<?xml version="1.0" encoding="UTF-8"?>
<!DOCTYPE svg PUBLIC "-//W3C//DTD SVG 1.1//EN" "http://www.w3.org/Graphics/SVG/1.1/DTD/svg11.dtd">
<svg version="1.1" xmlns="http://www.w3.org/2000/svg" xmlns:xlink="http://www.w3.org/1999/xlink" x="0" y="0" width="800" height="800" viewBox="0, 0, 800, 800">
  <g id="svgg">
    <path d="M375.417,216.75 C346.878,220.777 336.155,254.477 358.934,268.555 C360.602,269.586 360.579,269.712 358.527,270.704 C339.382,279.974 336.148,309.095 352.469,325.276 C368.989,341.656 399.073,339.633 412.719,321.223 C425.034,304.612 420.499,279.307 403.722,271.028 C400.821,269.597 400.846,269.768 403.306,268.221 C417.873,259.054 418.863,237.257 405.271,224.975 C398.242,218.623 386.014,215.254 375.417,216.75 M460.886,216.93 C442.569,219.923 430.184,231.869 427.363,249.263 C426.566,254.18 426.575,299.063 427.375,303.717 C430.072,319.414 440.595,330.533 457.06,335.082 C461.111,336.201 471.344,336.489 475.058,335.59 C491.257,331.666 501.886,321.892 505.939,307.194 L506.909,303.674 L506.91,276.679 C506.912,246.363 507,247.477 504.068,240.289 C497.546,224.291 478.59,214.036 460.886,216.93 M385.659,232.007 C402.31,236.44 400.564,261.01 383.388,263.956 C371.748,265.952 362.585,255.294 365.459,243.103 C367.498,234.457 376.432,229.551 385.659,232.007 M474.157,233.818 C480.865,236.05 485.072,240.468 487.724,248.068 L488.915,251.484 L489.02,274.877 C489.14,301.635 489.141,301.618 486.327,307.454 C477.245,326.29 451.833,323.826 445.485,303.495 L444.643,300.796 L444.643,276.499 C444.643,249.035 444.527,250.327 447.534,244.203 C452.281,234.537 463.347,230.221 474.157,233.818 M539.486,247.147 C525.37,249.474 517.768,258.096 517.733,271.82 C517.7,284.736 522.593,289.691 541.498,295.89 C555.957,300.633 559.59,303.31 560.251,309.71 C561.069,317.64 555.746,322.756 546.686,322.748 C538.351,322.739 533.343,319.219 531.644,312.173 L531.028,309.619 L523.158,309.617 L515.288,309.614 L515.535,311.684 C517.225,325.852 528.674,335.542 544.448,336.158 C562.849,336.876 576.363,325.389 576.315,309.074 C576.278,296.497 570.273,290.511 551.184,284.024 C534.472,278.342 530.318,273.919 534.219,265.949 C539.318,255.526 557.844,258.77 557.844,270.086 L557.844,271.1 L565.796,271.1 L573.749,271.1 L573.504,269.21 C571.466,253.421 557.272,244.215 539.486,247.147 M511.412,261.382 C511.412,262.635 511.522,263.55 511.66,263.413 C511.914,263.158 511.827,259.521 511.56,259.253 C511.478,259.17 511.412,260.128 511.412,261.382 M385.612,278.84 C406.443,283.214 407.093,314.178 386.467,319.563 C372.836,323.122 360.607,313.565 360.607,299.356 C360.607,285.341 372.009,275.984 385.612,278.84 M568.439,283.428 L567.382,284.599 L568.552,283.54 C569.642,282.555 569.887,282.258 569.609,282.258 C569.547,282.258 569.021,282.784 568.439,283.428 M245.763,329.321 L243.795,331.39 L245.865,329.423 C247.787,327.595 248.1,327.251 247.833,327.251 C247.776,327.251 246.845,328.182 245.763,329.321 M375.534,345.641 C347.153,349.017 336.152,383.332 358.934,397.413 C360.602,398.445 360.579,398.569 358.527,399.563 C332.576,412.127 338.281,453.97 367.193,463.141 C394.058,471.661 419.405,454.794 419.405,428.394 C419.405,414.796 413.716,404.613 403.357,399.677 C400.86,398.486 400.862,398.617 403.306,397.079 C410.205,392.738 414.923,384.03 414.94,375.605 C414.982,356.302 397.52,343.025 375.534,345.641 M461.919,345.661 C443.462,348.013 430.23,360.443 427.363,378.121 C426.566,383.039 426.575,427.923 427.375,432.576 C434.458,473.811 494.792,476.48 505.939,436.053 L506.909,432.533 L506.91,405.539 C506.912,375.354 506.995,376.445 504.189,369.422 C497.861,353.577 479.737,343.389 461.919,345.661 M551.725,351.546 C550.25,353.032 549.123,354.246 549.223,354.246 C549.322,354.246 550.61,353.032 552.084,351.546 C553.559,350.062 554.685,348.848 554.586,348.848 C554.488,348.848 553.199,350.062 551.725,351.546 M385.659,360.866 C402.31,365.3 400.564,389.869 383.388,392.815 C371.748,394.81 362.585,384.152 365.459,371.963 C367.498,363.317 376.432,358.409 385.659,360.866 M474.143,362.684 C480.93,364.973 485.065,369.311 487.724,376.927 L488.915,380.343 L489.02,403.736 C489.14,430.494 489.141,430.478 486.327,436.313 C477.242,455.154 451.836,452.691 445.485,432.353 L444.643,429.654 L444.643,405.358 C444.643,377.894 444.527,379.185 447.534,373.062 C452.281,363.396 463.397,359.06 474.143,362.684 M529.759,373.167 C527.878,375.072 527.367,375.758 528.058,375.45 C528.603,375.207 529.049,374.836 529.049,374.627 C529.049,374.417 529.893,373.39 530.926,372.344 C531.959,371.299 532.723,370.443 532.626,370.443 C532.529,370.443 531.239,371.669 529.759,373.167 M539.486,376.005 C526.019,378.226 518.115,386.691 517.624,399.42 C517.098,413.021 522.188,418.405 541.597,424.779 C555.953,429.494 559.592,432.183 560.251,438.568 C561.068,446.487 555.736,451.612 546.686,451.605 C538.352,451.599 533.343,448.078 531.644,441.032 L531.028,438.477 L523.158,438.475 L515.288,438.472 L515.535,440.542 C517.227,454.721 528.663,464.401 544.448,465.016 C562.849,465.734 576.363,454.249 576.315,437.933 C576.278,425.335 570.049,419.175 550.824,412.727 C534.553,407.268 530.344,402.727 534.219,394.806 C539.318,384.384 557.844,387.629 557.844,398.945 L557.844,399.959 L565.796,399.959 L573.749,399.959 L573.504,398.069 C571.467,382.288 557.263,373.075 539.486,376.005 M385.612,407.699 C395.692,409.816 402.121,418.552 401.519,429.312 C400.003,456.336 360.646,455.302 360.602,428.238 C360.578,414.245 372.024,404.847 385.612,407.699 M506.01,526.568 L497.913,534.757 L506.102,526.661 C513.711,519.139 514.453,518.38 514.198,518.38 C514.147,518.38 510.462,522.064 506.01,526.568 M379.354,524.708 C365.563,528.416 360.444,546.365 370.179,556.879 C380.447,567.97 399.352,563.948 403.823,549.721 C408.549,534.684 394.741,520.569 379.354,524.708 M247.935,543.523 L247.935,562.652 L249.911,562.652 L251.887,562.652 L251.98,545.465 L252.074,528.278 L257.292,528.305 C265.806,528.351 268.894,530.406 269.437,536.391 C269.97,542.273 266.083,546.095 259.568,546.095 C256.714,546.095 256.44,545.293 262.46,554.553 L267.608,562.472 L269.829,562.579 C272.591,562.713 272.809,563.413 267.711,555.784 C262.363,547.779 262.606,548.496 265.063,547.981 C276.183,545.649 276.534,528.782 265.534,525.4 C264.098,524.959 261.554,524.75 255.763,524.599 L247.935,524.394 L247.935,543.523 M285.548,539.885 C282.016,548.349 278.43,556.934 277.581,558.963 L276.038,562.652 L278.287,562.652 L280.537,562.652 L282.705,557.344 L284.872,552.034 L293.844,552.034 L302.816,552.034 L304.981,557.337 L307.145,562.641 L309.424,562.647 C310.679,562.65 311.65,562.504 311.584,562.322 C311.518,562.141 307.981,553.558 303.726,543.25 L295.987,524.507 L293.979,524.502 L291.972,524.498 L285.548,539.885 M315.963,543.568 L315.963,562.729 L324.152,562.554 C332.935,562.367 334.519,562.108 338.145,560.274 C349.732,554.411 349.872,533.226 338.363,527.091 C334.69,525.135 332.782,524.803 323.972,524.595 L315.963,524.405 L315.963,543.568 M354.118,543.575 L354.118,562.652 L356.097,562.652 L358.076,562.652 L358.076,543.575 L358.076,524.498 L356.097,524.498 L354.118,524.498 L354.118,543.575 M389.615,528.307 C397.617,530.497 402.611,540.388 399.846,548.574 C394.727,563.727 373.802,563.12 369.787,547.703 C366.6,535.469 377.353,524.949 389.615,528.307 M330.721,528.471 C339.111,529.787 343.787,536.865 342.579,546.418 C341.46,555.271 336.188,559.032 324.871,559.047 L320.282,559.053 L320.282,543.575 L320.282,528.098 L324.332,528.1 C326.56,528.103 329.434,528.269 330.721,528.471 M297.251,537.817 C298.873,541.875 300.506,545.964 300.879,546.905 L301.555,548.615 L294.001,548.615 C288.133,548.615 286.448,548.513 286.448,548.157 C286.448,547.905 287.962,543.897 289.814,539.249 C291.665,534.601 293.295,530.474 293.437,530.078 C293.781,529.117 293.729,529.012 297.251,537.817 M219.62,584.968 C219.62,586.454 219.684,587.061 219.762,586.319 C219.839,585.576 219.839,584.361 219.762,583.619 C219.684,582.876 219.62,583.484 219.62,584.968" fill="#000000" id="path0"/>
    <path d="M380.307,216.284 C380.755,216.369 381.402,216.367 381.746,216.276 C382.091,216.187 381.725,216.116 380.932,216.12 C380.141,216.124 379.859,216.198 380.307,216.284 M466.148,216.277 C466.495,216.368 467.062,216.368 467.408,216.277 C467.755,216.187 467.471,216.112 466.778,216.112 C466.085,216.112 465.802,216.187 466.148,216.277 M409.008,223.228 C409.782,224.02 410.495,224.668 410.594,224.668 C410.692,224.668 410.141,224.02 409.368,223.228 C408.595,222.437 407.88,221.788 407.782,221.788 C407.683,221.788 408.234,222.437 409.008,223.228 M496.114,228.267 C497.089,229.257 497.967,230.067 498.067,230.067 C498.165,230.067 497.448,229.257 496.474,228.267 C495.499,227.278 494.62,226.468 494.521,226.468 C494.422,226.468 495.139,227.278 496.114,228.267 M365.014,247.704 C365.014,248.595 365.084,248.959 365.17,248.514 C365.255,248.068 365.255,247.34 365.17,246.894 C365.084,246.448 365.014,246.814 365.014,247.704 M544.796,246.519 C545.241,246.604 545.97,246.604 546.415,246.519 C546.861,246.433 546.497,246.363 545.606,246.363 C544.714,246.363 544.35,246.433 544.796,246.519 M511.115,258.952 C511.08,261.674 511.172,263.901 511.321,263.903 C511.469,263.903 511.548,262.405 511.495,260.573 C511.321,254.527 511.182,253.933 511.115,258.952 M488.904,276.319 C488.904,288 488.949,292.725 489.005,286.822 C489.06,280.919 489.06,271.362 489.005,265.586 C488.949,259.81 488.904,264.64 488.904,276.319 M444.631,276.679 C444.631,288.359 444.677,293.086 444.732,287.182 C444.787,281.278 444.787,271.722 444.732,265.945 C444.677,260.169 444.631,264.999 444.631,276.679 M296.705,278.389 L284.108,291.076 L296.797,278.481 C303.775,271.553 309.484,265.844 309.484,265.794 C309.484,265.539 308.411,266.597 296.705,278.389 M410.613,275.869 C411.495,276.809 412.265,277.579 412.323,277.579 C412.592,277.579 412.307,277.256 410.718,275.765 L409.008,274.16 L410.613,275.869 M366.513,284.148 L365.456,285.318 L366.625,284.261 C367.269,283.679 367.795,283.152 367.795,283.091 C367.795,282.813 367.498,283.058 366.513,284.148 M522.57,286.758 C523.241,287.451 523.871,288.018 523.97,288.018 C524.07,288.018 523.601,287.451 522.93,286.758 C522.257,286.065 521.627,285.498 521.528,285.498 C521.429,285.498 521.898,286.065 522.57,286.758 M481.517,313.843 L480.276,315.193 L481.626,313.953 C482.882,312.798 483.142,312.493 482.866,312.493 C482.807,312.493 482.199,313.101 481.517,313.843 M450.581,312.967 C450.581,313.028 451.108,313.555 451.752,314.136 L452.921,315.193 L451.864,314.023 C450.878,312.933 450.581,312.688 450.581,312.967 M351.957,325.271 C353.033,326.361 353.993,327.251 354.092,327.251 C354.192,327.251 353.393,326.361 352.317,325.271 C351.241,324.182 350.281,323.292 350.182,323.292 C350.084,323.292 350.882,324.182 351.957,325.271 M522.554,327.341 C524.046,328.931 524.369,329.215 524.369,328.946 C524.369,328.888 523.6,328.118 522.659,327.236 L520.949,325.631 L522.554,327.341 M568.799,327.701 L567.742,328.87 L568.912,327.813 C569.555,327.232 570.081,326.706 570.081,326.644 C570.081,326.366 569.784,326.61 568.799,327.701 M547.935,355.056 L545.426,357.667 L548.035,355.156 C550.459,352.825 550.809,352.447 550.544,352.447 C550.49,352.447 549.316,353.621 547.935,355.056 M496.114,357.126 C497.089,358.116 497.967,358.926 498.067,358.926 C498.165,358.926 497.448,358.116 496.474,357.126 C495.499,356.136 494.62,355.326 494.521,355.326 C494.422,355.326 495.139,356.136 496.114,357.126 M529.408,373.143 C527.735,374.826 526.563,376.203 526.806,376.203 C527.049,376.203 527.248,376.032 527.248,375.821 C527.248,375.612 527.451,375.557 527.698,375.699 C527.946,375.842 528.022,375.82 527.868,375.65 C527.713,375.48 528.763,374.158 530.199,372.712 C531.635,371.267 532.73,370.084 532.63,370.084 C532.532,370.084 531.082,371.461 529.408,373.143 M365.014,376.563 C365.014,377.454 365.084,377.818 365.17,377.372 C365.255,376.927 365.255,376.198 365.17,375.753 C365.084,375.307 365.014,375.671 365.014,376.563 M544.8,375.378 C545.247,375.464 545.896,375.461 546.24,375.37 C546.584,375.281 546.217,375.21 545.426,375.214 C544.634,375.218 544.353,375.291 544.8,375.378 M568.641,380.343 C569.313,381.036 569.944,381.603 570.042,381.603 C570.142,381.603 569.673,381.036 569.002,380.343 C568.33,379.65 567.699,379.083 567.601,379.083 C567.501,379.083 567.97,379.65 568.641,380.343 M488.904,405.178 C488.904,416.858 488.949,421.585 489.005,415.681 C489.06,409.777 489.06,400.221 489.005,394.444 C488.949,388.668 488.904,393.498 488.904,405.178 M444.631,405.539 C444.631,417.218 444.677,421.945 444.732,416.04 C444.787,410.137 444.787,400.58 444.732,394.804 C444.677,389.028 444.631,393.858 444.631,405.539 M410.613,404.729 C412.105,406.317 412.427,406.603 412.427,406.332 C412.427,406.276 411.659,405.506 410.718,404.623 L409.008,403.019 L410.613,404.729 M366.513,413.007 L365.456,414.177 L366.625,413.12 C367.269,412.538 367.795,412.011 367.795,411.95 C367.795,411.671 367.498,411.917 366.513,413.007 M522.57,415.617 C523.241,416.31 523.871,416.877 523.97,416.877 C524.07,416.877 523.601,416.31 522.93,415.617 C522.257,414.924 521.627,414.357 521.528,414.357 C521.429,414.357 521.898,414.924 522.57,415.617 M481.517,442.703 L480.276,444.052 L481.626,442.811 C482.882,441.657 483.142,441.352 482.866,441.352 C482.807,441.352 482.199,441.959 481.517,442.703 M450.581,441.824 C450.581,441.886 451.108,442.413 451.752,442.995 L452.921,444.052 L451.864,442.881 C450.878,441.792 450.581,441.547 450.581,441.824 M522.554,456.2 C524.046,457.789 524.369,458.075 524.369,457.805 C524.369,457.747 523.6,456.977 522.659,456.094 L520.949,454.49 L522.554,456.2 M568.799,456.56 L567.742,457.729 L568.912,456.672 C570.002,455.687 570.246,455.39 569.969,455.39 C569.907,455.39 569.381,455.917 568.799,456.56 M554.245,477.886 C553.37,478.777 552.735,479.506 552.835,479.506 C552.933,479.506 553.729,478.777 554.604,477.886 C555.478,476.995 556.113,476.266 556.013,476.266 C555.915,476.266 555.119,476.995 554.245,477.886 M508.171,524.049 L464.079,568.231 L508.262,524.139 C532.562,499.888 552.444,480.006 552.444,479.956 C552.444,479.705 549.164,482.972 508.171,524.049 M358.163,543.468 L358.076,562.618 L355.827,562.746 L353.577,562.873 L355.838,562.943 C358.723,563.032 358.459,565.11 358.347,543.215 L358.25,524.318 L358.163,543.468 M341.52,529.357 C342.191,530.05 342.821,530.617 342.921,530.617 C343.019,530.617 342.55,530.05 341.879,529.357 C341.207,528.665 340.577,528.098 340.478,528.098 C340.38,528.098 340.847,528.665 341.52,529.357 M370.477,529.628 L369.055,531.158 L370.584,529.734 C372.007,528.411 372.28,528.098 372.007,528.098 C371.949,528.098 371.26,528.787 370.477,529.628 M269.254,537.096 C269.254,537.789 269.328,538.073 269.419,537.726 C269.51,537.38 269.51,536.813 269.419,536.466 C269.328,536.12 269.254,536.403 269.254,537.096 M347.034,543.575 C347.034,544.862 347.099,545.388 347.179,544.746 C347.258,544.102 347.258,543.049 347.179,542.405 C347.099,541.763 347.034,542.289 347.034,543.575 M369.318,543.575 C369.318,544.268 369.393,544.552 369.483,544.205 C369.573,543.859 369.573,543.292 369.483,542.946 C369.393,542.599 369.318,542.883 369.318,543.575 M257.747,545.993 C258.295,546.076 259.105,546.074 259.547,545.988 C259.99,545.904 259.542,545.836 258.552,545.838 C257.563,545.841 257.2,545.911 257.747,545.993 M309.484,562.652 L307.145,562.888 L309.374,562.95 C310.599,562.984 311.702,562.85 311.824,562.652 C311.946,562.455 311.996,562.32 311.935,562.354 C311.874,562.389 310.771,562.523 309.484,562.652 M248.565,562.913 C249.208,562.993 250.26,562.993 250.904,562.913 C251.548,562.833 251.021,562.767 249.734,562.767 C248.447,562.767 247.921,562.833 248.565,562.913 M268.712,562.912 C269.352,562.991 270.486,562.993 271.232,562.914 C271.979,562.838 271.456,562.772 270.07,562.771 C268.685,562.768 268.074,562.833 268.712,562.912 M276.992,562.912 C277.63,562.991 278.764,562.993 279.511,562.914 C280.258,562.838 279.736,562.772 278.35,562.771 C276.964,562.768 276.353,562.833 276.992,562.912 M319.113,562.921 C320.943,562.986 323.94,562.986 325.772,562.921 C327.603,562.855 326.105,562.801 322.443,562.801 C318.78,562.801 317.281,562.855 319.113,562.921 M462.099,570.031 C461.225,570.922 460.59,571.651 460.69,571.651 C460.788,571.651 461.585,570.922 462.46,570.031 C463.334,569.14 463.968,568.411 463.869,568.411 C463.77,568.411 462.974,569.14 462.099,570.031" fill="#C1C1C1" id="path1"/>
    <path d="M374.813,212.838 C366.927,213.831 360.598,216.641 353.253,222.411 C350.753,224.377 233.665,341.544 229.974,345.774 C224.941,351.544 222.255,357.595 220.94,366.125 C220.035,371.995 219.889,388.431 219.874,486.082 L219.859,587.503 L326.852,587.399 C428.884,587.298 433.993,587.263 437.084,586.634 C441.081,585.821 440.822,585.886 442.123,585.374 C442.716,585.141 443.689,584.761 444.282,584.529 C445.955,583.879 450.067,581.357 451.946,579.828 C455.275,577.121 570.554,461.638 572.871,458.689 C575.548,455.282 578.679,449.5 579.273,446.871 C582.396,433.025 578.645,421.707 568.677,414.895 L566.181,413.191 L571.924,408.284 L577.667,403.378 L577.446,400.859 C575.351,376.917 552.301,364.636 529.159,375.129 C527.848,375.723 526.733,376.167 526.68,376.115 C526.629,376.063 532.121,370.607 538.885,363.991 C568.762,334.77 571.511,331.934 575.055,326.692 C580.321,318.899 581.854,308.332 578.878,300.328 C578.386,299.002 577.945,297.76 577.901,297.569 C577.857,297.379 577.699,297.055 577.552,296.85 C573.994,291.899 572.068,290.061 567.456,287.221 L565.371,285.936 L571.534,280.408 L577.696,274.879 L577.475,271.723 C576.234,254.012 563.99,243.192 545.246,243.241 C531.767,243.275 523.808,247.54 514.831,259.541 C513.049,261.922 511.469,263.877 511.321,263.886 C511.172,263.895 511.05,261.188 511.05,257.872 C511.044,231.057 492.881,212.582 466.598,212.656 C449.694,212.703 438.817,218.784 424.322,236.29 L418.759,243.009 L417.969,239.508 C416.084,231.169 410.76,223.373 403.969,219.005 C402.979,218.369 401.973,217.682 401.734,217.478 C401.496,217.275 401.212,217.109 401.105,217.109 C400.998,217.109 399.898,216.643 398.66,216.072 C392.219,213.101 382.829,211.829 374.813,212.838 M389.571,217.101 C415.517,222.238 424.472,253.935 403.968,268.057 C401.551,269.722 401.55,269.609 403.985,270.882 C427.526,283.182 424.48,320.718 398.97,332.672 C371.787,345.41 342.09,328.109 342.09,299.536 C342.09,285.673 348.359,274.704 358.74,270.403 C360.131,269.827 360.151,269.62 358.886,268.865 C351.131,264.234 346.249,254.845 346.667,245.365 C347.546,225.458 367.012,212.634 389.571,217.101 M474.246,216.968 C490.717,219.878 502.534,230.873 506.463,246.946 C507.36,250.613 507.888,296.01 507.103,301.931 C503.399,329.872 473.261,344.931 447.585,331.671 C436.066,325.721 428.937,315.722 426.985,302.776 C426.354,298.595 426.229,255.868 426.833,251.051 C429.74,227.865 450.69,212.805 474.246,216.968 M378.215,231.879 C362.467,234.277 360.196,257.203 375.14,262.914 C385.534,266.886 396.924,259.013 396.945,247.843 C396.967,237.143 388.882,230.254 378.215,231.879 M461.02,233.492 C453.631,235.304 448.666,240.254 445.857,248.604 L445.009,251.123 L444.902,275.374 C444.797,298.76 444.819,299.729 445.526,302.549 C451.401,326.014 482.935,325.464 488.162,301.803 C489.132,297.418 489.01,253.948 488.017,250.011 C484.837,237.399 473.463,230.44 461.02,233.492 M549.204,246.637 C563.265,248.117 572.84,257.035 573.732,269.481 L573.861,271.28 L565.968,271.377 C557.385,271.483 557.5,271.509 557.49,269.436 C557.432,257.681 536.607,256.455 533.691,268.035 C531.932,275.019 535.794,278.58 550.465,283.509 C564.621,288.263 571.329,292.564 574.338,298.815 C579.377,309.28 575.978,322.596 566.415,329.858 C546.948,344.643 516.704,333.622 515.303,311.233 L515.191,309.434 L523.285,309.434 L531.379,309.434 L531.622,311.132 C533.808,326.415 558.805,326.952 559.901,311.74 C560.448,304.153 557.036,301.255 541.519,296.128 C523.242,290.089 517.823,284.971 517.263,273.226 C516.568,258.599 526.162,248.133 541.647,246.627 C545.577,246.245 545.485,246.245 549.204,246.637 M375.586,279.229 C356.53,283.843 355.683,313.235 374.439,319.065 C388.5,323.437 401.089,314.041 401.089,299.176 C401.089,284.891 389.534,275.853 375.586,279.229 M389.571,345.961 C415.515,351.092 424.472,382.794 403.968,396.917 C401.551,398.581 401.55,398.469 403.985,399.741 C427.521,412.039 424.474,449.578 398.97,461.53 C371.782,474.272 342.09,456.975 342.09,428.394 C342.09,414.531 348.368,403.558 358.764,399.252 C359.773,398.834 360.287,398.159 359.596,398.159 C358.987,398.159 354.255,394.087 352.594,392.133 C344.786,382.947 344.582,368.94 352.103,358.417 C359.61,347.914 374.471,342.974 389.571,345.961 M475.237,346.029 C491.145,349.163 502.624,360.113 506.467,375.82 C507.36,379.472 507.885,424.885 507.103,430.79 C503.026,461.553 467.198,475.844 441.692,456.884 C433.691,450.937 428.569,442.142 426.985,431.635 C426.354,427.454 426.229,384.726 426.833,379.909 C429.79,356.331 451.259,341.304 475.237,346.029 M378.215,360.737 C362.467,363.137 360.196,386.062 375.14,391.773 C385.522,395.74 396.924,387.86 396.945,376.702 C396.967,366.003 388.882,359.111 378.215,360.737 M461.02,362.35 C453.631,364.163 448.666,369.112 445.857,377.463 L445.009,379.982 L444.902,404.232 C444.797,427.619 444.819,428.588 445.526,431.409 C451.405,454.889 482.931,454.338 488.162,430.663 C489.132,426.276 489.01,382.807 488.017,378.87 C484.84,366.267 473.454,359.3 461.02,362.35 M552.084,375.889 C564.49,378.128 572.91,386.861 573.732,398.339 L573.861,400.139 L565.968,400.236 C557.396,400.342 557.5,400.365 557.49,398.314 C557.43,386.547 536.61,385.305 533.691,396.894 C531.935,403.871 535.757,407.402 550.465,412.391 C562.443,416.455 566.109,418.315 570.297,422.454 C580.225,432.266 578.365,449.643 566.415,458.717 C546.948,473.501 516.704,462.48 515.303,440.092 L515.191,438.293 L523.285,438.293 L531.379,438.293 L531.622,439.991 C533.807,455.265 558.805,455.801 559.901,440.599 C560.448,433.012 557.036,430.113 541.519,424.987 C523.242,418.948 517.823,413.829 517.263,402.084 C516.609,388.326 525.296,377.942 539.19,375.871 C544.218,375.122 547.865,375.127 552.084,375.889 M375.586,408.088 C355.425,412.968 356.08,444.09 376.434,448.409 C390.059,451.302 401.089,442.187 401.089,428.035 C401.089,413.749 389.534,404.711 375.586,408.088 M389.946,524.325 C404.875,528.128 410.023,546.774 399.146,557.65 C389.592,567.205 372.655,564.532 366.985,552.574 C359.561,536.917 373.251,520.074 389.946,524.325 M264.564,524.903 C276.281,527.387 277.148,545.091 265.699,548.073 C264.579,548.365 263.594,548.673 263.511,548.756 C263.426,548.84 265.322,551.849 267.725,555.443 C273.258,563.725 273.055,563.072 270.047,562.94 L267.592,562.833 L262.262,554.617 C256.025,545.004 256.248,545.735 259.568,545.735 C266.111,545.735 269.186,542.896 269.163,536.875 C269.141,530.799 265.685,528.458 256.739,528.458 L252.261,528.458 L252.168,545.645 L252.074,562.833 L249.824,562.94 L247.574,563.047 L247.574,543.772 L247.574,524.498 L255.115,524.498 C259.322,524.498 263.499,524.677 264.564,524.903 M304.084,543.575 C308.388,553.969 311.841,562.593 311.756,562.742 C311.492,563.203 307.393,563.051 307.076,562.568 C306.916,562.324 305.871,559.935 304.755,557.259 L302.724,552.394 L293.84,552.394 L284.955,552.394 L282.777,557.703 L280.599,563.013 L278.304,563.013 C276.828,563.013 276.01,562.867 276.01,562.602 C276.01,562.215 290.817,526.488 291.547,525.112 C291.831,524.578 292.272,524.484 294.073,524.571 L296.255,524.679 L304.084,543.575 M334.166,525.225 C351.716,529.714 351.698,557.262 334.14,562.106 C332.574,562.538 329.782,562.758 323.972,562.907 L315.963,563.111 L315.963,543.805 L315.963,524.498 L323.644,524.498 C330.17,524.498 331.752,524.608 334.166,525.225 M358.349,543.665 L358.256,562.833 L356.007,562.94 L353.757,563.047 L353.757,543.772 L353.757,524.498 L356.1,524.498 L358.442,524.498 L358.349,543.665 M381.473,528.239 C372.592,530.217 367.489,539.564 370.308,548.689 C374.36,561.806 392.975,563.117 398.75,550.693 C404.421,538.49 394.331,525.375 381.473,528.239 M320.282,543.569 L320.282,558.766 L326.311,558.638 C338.408,558.38 343.96,552.264 342.318,541.005 C341.032,532.182 336.69,528.838 326.131,528.539 L320.282,528.374 L320.282,543.569 M290.176,538.947 L286.551,548.074 L290.08,548.177 C292.02,548.233 295.302,548.233 297.373,548.177 L301.137,548.074 L297.758,539.616 C295.899,534.964 294.248,530.857 294.09,530.489 C293.873,529.989 292.883,532.129 290.176,538.947" fill="#FFFFFF" id="path2"/>
    <path d="M437.426,228.358 L436.004,229.887 L437.534,228.465 C438.375,227.681 439.063,226.993 439.063,226.934 C439.063,226.662 438.749,226.934 437.426,228.358 M346.673,246.625 C346.673,247.911 346.739,248.437 346.818,247.794 C346.899,247.151 346.899,246.098 346.818,245.454 C346.739,244.81 346.673,245.337 346.673,246.625 M523.807,254.633 L522.75,255.802 L523.919,254.745 C525.01,253.76 525.254,253.463 524.976,253.463 C524.914,253.463 524.387,253.989 523.807,254.633 M507.261,276.319 C507.261,288.396 507.306,293.284 507.361,287.181 C507.417,281.08 507.417,271.199 507.361,265.225 C507.306,259.251 507.261,264.243 507.261,276.319 M426.634,276.679 C426.634,288.359 426.679,293.086 426.735,287.182 C426.79,281.278 426.79,271.722 426.735,265.945 C426.679,260.169 426.634,264.999 426.634,276.679 M533.099,270.561 C533.103,271.352 533.176,271.634 533.263,271.185 C533.348,270.738 533.345,270.091 533.255,269.747 C533.164,269.402 533.094,269.768 533.099,270.561 M517.282,272.001 C517.283,273.187 517.351,273.631 517.431,272.983 C517.511,272.337 517.509,271.364 517.427,270.824 C517.345,270.283 517.28,270.813 517.282,272.001 M569.362,292.81 C569.362,292.872 569.889,293.398 570.531,293.979 L571.701,295.036 L570.644,293.867 C569.658,292.776 569.362,292.531 569.362,292.81 M419.729,299.356 C419.731,300.346 419.802,300.707 419.885,300.161 C419.967,299.613 419.966,298.804 419.88,298.36 C419.794,297.918 419.726,298.366 419.729,299.356 M255.473,319.602 L254.234,320.952 L255.583,319.711 C256.326,319.03 256.933,318.421 256.933,318.362 C256.933,318.086 256.629,318.346 255.473,319.602 M380.307,320.307 C380.755,320.393 381.402,320.389 381.746,320.3 C382.091,320.209 381.725,320.139 380.932,320.142 C380.141,320.147 379.859,320.22 380.307,320.307 M466.148,320.3 C466.495,320.39 467.062,320.39 467.408,320.3 C467.755,320.21 467.471,320.136 466.778,320.136 C466.085,320.136 465.802,320.21 466.148,320.3 M250.624,324.461 L248.115,327.071 L250.724,324.562 C253.148,322.23 253.498,321.852 253.233,321.852 C253.179,321.852 252.005,323.026 250.624,324.461 M496.091,324.461 L495.034,325.631 L496.203,324.574 C496.847,323.992 497.374,323.466 497.374,323.404 C497.374,323.127 497.076,323.371 496.091,324.461 M379.583,336.51 C380.227,336.59 381.279,336.59 381.922,336.51 C382.566,336.43 382.04,336.365 380.752,336.365 C379.466,336.365 378.939,336.43 379.583,336.51 M466.148,336.507 C466.693,336.59 467.583,336.59 468.129,336.507 C468.673,336.425 468.227,336.357 467.139,336.357 C466.05,336.357 465.604,336.425 466.148,336.507 M545.335,336.507 C545.879,336.59 546.771,336.59 547.316,336.507 C547.86,336.425 547.414,336.357 546.325,336.357 C545.237,336.357 544.791,336.425 545.335,336.507 M437.426,357.215 L436.004,358.746 L437.534,357.323 C438.956,356 439.228,355.686 438.956,355.686 C438.898,355.686 438.209,356.375 437.426,357.215 M534.797,368.195 L532.468,370.623 L534.898,368.294 C536.233,367.014 537.327,365.921 537.327,365.865 C537.327,365.601 536.96,365.937 534.797,368.195 M346.673,375.482 C346.673,376.77 346.739,377.297 346.818,376.653 C346.899,376.009 346.899,374.957 346.818,374.313 C346.739,373.67 346.673,374.196 346.673,375.482 M523.807,383.492 L522.75,384.661 L523.919,383.604 C525.01,382.619 525.254,382.322 524.976,382.322 C524.914,382.322 524.387,382.849 523.807,383.492 M507.261,405.178 C507.261,417.255 507.306,422.143 507.361,416.04 C507.417,409.939 507.417,400.059 507.361,394.085 C507.306,388.109 507.261,393.102 507.261,405.178 M426.634,405.539 C426.634,417.218 426.679,421.945 426.735,416.04 C426.79,410.137 426.79,400.58 426.735,394.804 C426.679,389.028 426.634,393.858 426.634,405.539 M533.099,399.419 C533.103,400.211 533.176,400.493 533.263,400.045 C533.348,399.597 533.345,398.949 533.255,398.605 C533.164,398.261 533.094,398.627 533.099,399.419 M517.282,400.859 C517.283,402.046 517.351,402.489 517.431,401.842 C517.511,401.195 517.509,400.224 517.427,399.683 C517.345,399.141 517.28,399.671 517.282,400.859 M569.362,421.668 C569.362,421.729 569.889,422.256 570.531,422.838 L571.701,423.895 L570.644,422.725 C569.658,421.635 569.362,421.391 569.362,421.668 M419.729,428.215 C419.731,429.204 419.802,429.567 419.885,429.02 C419.967,428.472 419.966,427.662 419.88,427.22 C419.794,426.777 419.726,427.225 419.729,428.215 M380.307,449.165 C380.755,449.252 381.402,449.248 381.746,449.158 C382.091,449.068 381.725,448.998 380.932,449.001 C380.141,449.005 379.859,449.08 380.307,449.165 M465.973,449.165 C466.421,449.252 467.068,449.248 467.412,449.158 C467.757,449.068 467.391,448.998 466.598,449.001 C465.807,449.005 465.525,449.08 465.973,449.165 M496.091,453.32 L495.034,454.49 L496.203,453.433 C496.847,452.851 497.374,452.325 497.374,452.263 C497.374,451.985 497.076,452.23 496.091,453.32 M379.574,465.367 C380.214,465.448 381.348,465.449 382.094,465.371 C382.841,465.293 382.318,465.228 380.932,465.226 C379.546,465.225 378.935,465.288 379.574,465.367 M465.968,465.369 C466.612,465.448 467.665,465.448 468.308,465.369 C468.951,465.289 468.425,465.224 467.139,465.224 C465.851,465.224 465.326,465.289 465.968,465.369 M545.155,465.369 C545.799,465.448 546.852,465.448 547.496,465.369 C548.138,465.289 547.612,465.224 546.325,465.224 C545.039,465.224 544.513,465.289 545.155,465.369 M383.909,524.04 C384.555,524.119 385.528,524.118 386.068,524.036 C386.609,523.954 386.08,523.889 384.892,523.89 C383.704,523.892 383.262,523.959 383.909,524.04 M247.742,543.575 C247.742,554.167 247.789,558.499 247.844,553.204 C247.901,547.908 247.901,539.243 247.844,533.947 C247.789,528.652 247.742,532.984 247.742,543.575 M353.925,543.575 C353.925,554.167 353.97,558.499 354.027,553.204 C354.082,547.908 354.082,539.243 354.027,533.947 C353.97,528.652 353.925,532.984 353.925,543.575 M254.337,528.365 C255.583,528.435 257.527,528.435 258.657,528.363 C259.787,528.293 258.769,528.235 256.393,528.235 C254.017,528.236 253.092,528.294 254.337,528.365 M322.547,528.365 C323.891,528.435 325.998,528.434 327.226,528.365 C328.456,528.294 327.356,528.237 324.782,528.237 C322.208,528.239 321.203,528.295 322.547,528.365 M365.024,543.575 C365.024,544.664 365.09,545.11 365.174,544.566 C365.255,544.021 365.255,543.129 365.174,542.585 C365.09,542.041 365.024,542.487 365.024,543.575 M372.834,554.126 C372.834,554.188 373.361,554.715 374.003,555.297 L375.174,556.354 L374.117,555.183 C373.13,554.093 372.834,553.848 372.834,554.126 M384.087,559.671 C384.635,559.754 385.444,559.751 385.887,559.667 C386.329,559.581 385.882,559.513 384.892,559.516 C383.902,559.518 383.54,559.589 384.087,559.671" fill="#404041" id="path3"/>
    <path d="M405.589,225.14 C405.589,225.202 406.116,225.728 406.758,226.31 L407.928,227.367 L406.871,226.197 C405.885,225.107 405.589,224.863 405.589,225.14 M465.249,232.847 C465.893,232.927 466.945,232.927 467.588,232.847 C468.232,232.767 467.706,232.701 466.418,232.701 C465.132,232.701 464.605,232.767 465.249,232.847 M415.045,246.625 C415.045,247.515 415.115,247.879 415.201,247.435 C415.287,246.989 415.287,246.259 415.201,245.815 C415.115,245.369 415.045,245.734 415.045,246.625 M397.034,247.704 C397.034,248.397 397.108,248.681 397.199,248.334 C397.288,247.988 397.288,247.421 397.199,247.074 C397.108,246.728 397.034,247.011 397.034,247.704 M544.976,259.83 C545.323,259.92 545.89,259.92 546.236,259.83 C546.582,259.74 546.299,259.666 545.606,259.666 C544.913,259.666 544.63,259.74 544.976,259.83 M407.369,264.892 L406.128,266.241 L407.479,265.001 C408.735,263.846 408.994,263.541 408.718,263.541 C408.659,263.541 408.051,264.148 407.369,264.892 M561.713,271.369 C563.94,271.432 567.584,271.432 569.812,271.369 C572.039,271.305 570.216,271.254 565.763,271.254 C561.308,271.254 559.485,271.305 561.713,271.369 M380.127,278.558 C380.675,278.64 381.485,278.638 381.927,278.553 C382.37,278.467 381.922,278.399 380.932,278.402 C379.943,278.404 379.581,278.475 380.127,278.558 M519.24,309.522 C521.467,309.585 525.112,309.585 527.339,309.522 C529.565,309.459 527.743,309.408 523.289,309.408 C518.836,309.408 517.013,309.459 519.24,309.522 M560.086,310.694 C560.086,311.387 560.16,311.67 560.251,311.324 C560.342,310.977 560.342,310.41 560.251,310.064 C560.16,309.718 560.086,310.001 560.086,310.694 M263.21,311.863 L262.153,313.033 L263.322,311.976 C264.413,310.991 264.657,310.694 264.379,310.694 C264.317,310.694 263.79,311.22 263.21,311.863 M436.543,323.404 C436.543,323.466 437.07,323.992 437.714,324.574 L438.883,325.631 L437.826,324.461 C436.841,323.371 436.543,323.127 436.543,323.404 M409.168,325.362 L407.928,326.711 L409.278,325.471 C410.535,324.316 410.793,324.011 410.518,324.011 C410.458,324.011 409.851,324.618 409.168,325.362 M465.249,361.705 C465.893,361.786 466.945,361.786 467.588,361.705 C468.232,361.626 467.706,361.561 466.418,361.561 C465.132,361.561 464.605,361.626 465.249,361.705 M415.045,375.483 C415.045,376.374 415.115,376.739 415.201,376.293 C415.287,375.848 415.287,375.118 415.201,374.674 C415.115,374.228 415.045,374.592 415.045,375.483 M397.034,376.563 C397.034,377.256 397.108,377.54 397.199,377.193 C397.288,376.847 397.288,376.28 397.199,375.934 C397.108,375.587 397.034,375.871 397.034,376.563 M544.976,388.689 C545.323,388.78 545.89,388.78 546.236,388.689 C546.582,388.598 546.299,388.524 545.606,388.524 C544.913,388.524 544.63,388.598 544.976,388.689 M407.369,393.75 L406.128,395.1 L407.479,393.859 C408.221,393.178 408.828,392.57 408.828,392.51 C408.828,392.235 408.523,392.493 407.369,393.75 M561.713,400.227 C563.94,400.29 567.584,400.29 569.812,400.227 C572.039,400.164 570.216,400.113 565.763,400.113 C561.308,400.113 559.485,400.164 561.713,400.227 M350.681,405.088 L349.257,406.618 L350.788,405.195 C352.21,403.872 352.482,403.558 352.21,403.558 C352.151,403.558 351.463,404.247 350.681,405.088 M380.127,407.416 C380.675,407.499 381.485,407.496 381.927,407.411 C382.37,407.326 381.922,407.258 380.932,407.261 C379.943,407.263 379.581,407.334 380.127,407.416 M519.24,438.381 C521.467,438.444 525.112,438.444 527.339,438.381 C529.565,438.318 527.743,438.267 523.289,438.267 C518.836,438.267 517.013,438.318 519.24,438.381 M560.086,439.553 C560.086,440.246 560.16,440.529 560.251,440.183 C560.342,439.837 560.342,439.27 560.251,438.923 C560.16,438.577 560.086,438.86 560.086,439.553 M436.543,452.263 C436.543,452.325 437.07,452.851 437.714,453.433 L438.883,454.49 L437.826,453.32 C436.841,452.23 436.543,451.985 436.543,452.263 M409.188,454.13 C408.314,455.021 407.679,455.75 407.778,455.75 C407.877,455.75 408.674,455.021 409.548,454.13 C410.423,453.239 411.056,452.51 410.958,452.51 C410.859,452.51 410.062,453.239 409.188,454.13 M252.06,545.555 C252.06,555.057 252.107,558.893 252.164,554.078 C252.22,549.265 252.22,541.489 252.164,536.802 C252.107,532.114 252.06,536.053 252.06,545.555 M290.157,548.524 C292.296,548.587 295.697,548.587 297.715,548.523 C299.735,548.458 297.984,548.407 293.826,548.407 C289.669,548.407 288.019,548.46 290.157,548.524 M284.884,552.124 C284.792,552.273 288.816,552.394 293.826,552.394 C298.838,552.394 302.862,552.273 302.77,552.124 C302.678,551.976 298.654,551.854 293.826,551.854 C289,551.854 284.976,551.976 284.884,552.124 M369.594,556.646 C369.594,556.708 370.121,557.234 370.764,557.816 L371.934,558.873 L370.877,557.703 C369.891,556.613 369.594,556.367 369.594,556.646 M322.547,558.96 C323.891,559.029 325.998,559.029 327.226,558.959 C328.456,558.889 327.356,558.833 324.782,558.833 C322.208,558.834 321.203,558.891 322.547,558.96" fill="#828283" id="path4"/>
  </g>
</svg>

