<?xml version="1.0" encoding="utf-8"?>
<!-- Generator: Adobe Illustrator 21.0.0, SVG Export Plug-In . SVG Version: 6.00 Build 0)  -->
<svg version="1.1"
	 id="svg6800" inkscape:version="0.92.2 5c3e80d, 2017-08-06" sodipodi:docname="drawing-3.svg" xmlns:cc="http://creativecommons.org/ns#" xmlns:dc="http://purl.org/dc/elements/1.1/" xmlns:inkscape="http://www.inkscape.org/namespaces/inkscape" xmlns:rdf="http://www.w3.org/1999/02/22-rdf-syntax-ns#" xmlns:sodipodi="http://sodipodi.sourceforge.net/DTD/sodipodi-0.dtd" xmlns:svg="http://www.w3.org/2000/svg"
	 xmlns="http://www.w3.org/2000/svg" xmlns:xlink="http://www.w3.org/1999/xlink" x="0px" y="0px" viewBox="0 0 512 512"
	 style="enable-background:new 0 0 512 512;" xml:space="preserve">
<style type="text/css">
	.st0{fill:none;}
	.st1{fill:#FFFFFF;}
	.st2{fill:#FDFDFD;}
</style>
<title  id="title7953">compact-disk</title>
<sodipodi:namedview  bordercolor="#666666" borderopacity="1.0" id="base" inkscape:current-layer="layer1" inkscape:cx="234.16824" inkscape:cy="480" inkscape:document-units="mm" inkscape:pageopacity="0.0" inkscape:pageshadow="2" inkscape:window-height="751" inkscape:window-maximized="0" inkscape:window-width="1280" inkscape:window-x="60" inkscape:window-y="0" inkscape:zoom="0.5" pagecolor="#ffffff" showgrid="false" units="px">
	</sodipodi:namedview>
<g>
	<path class="st0" d="M359.8,359.9c-69.1,0-138.2,0-207.3,0c0-68.9,0-137.8,0-206.8c69.1,0,138.2,0,207.3,0
		C359.8,222,359.8,290.9,359.8,359.9z M256.1,355.6c54.2,0.2,98.3-43.9,99-97.5c0.7-55.2-44-99.7-97.7-100.3
		c-55.1-0.6-99.6,44-100.2,97.8C156.6,310.7,201.6,355.8,256.1,355.6z"/>
	<path class="st1" d="M256.1,355.6c-54.5,0.2-99.5-44.8-98.9-100c0.6-53.8,45.1-98.4,100.2-97.8c53.7,0.6,98.4,45.1,97.7,100.3
		C354.4,311.7,310.3,355.8,256.1,355.6z M165.8,256.7c0,49.7,40.5,90.3,90.2,90.4c49.8,0,90.4-40.5,90.5-90.1
		c0-49.9-40.5-90.5-90.2-90.6C206.4,166.3,165.8,206.8,165.8,256.7z"/>
	<path class="st0" d="M165.8,256.7c0-49.8,40.6-90.4,90.5-90.3c49.8,0,90.3,40.7,90.2,90.6c0,49.7-40.7,90.2-90.5,90.1
		C206.3,347,165.8,306.4,165.8,256.7z M286.2,256c-0.4-16.8-14.3-29.8-30.8-29.4c-16.6,0.4-29.7,14.2-29.4,30.6
		c0.3,16.9,14.3,29.9,30.7,29.5C273.5,286.4,286.6,272.5,286.2,256z M337.9,252.8c0,0,0.1,0,0.1,0c-0.5-3.9-0.8-7.8-1.6-11.6
		c-0.8-3.8-1.8-7.6-3-11.3c-11-32.5-42.5-55-76.8-55.1c-3.5,0-5.7,3.2-4.2,6.2c1,2,2.8,2.5,4.9,2.5c34.1,0.6,63.1,24.2,70.3,57.5
		c1.1,4.9,1.2,10,1.7,15c0.3,3,2,5,4.5,4.9c2.6-0.1,4.2-2.2,4.1-5.2C337.8,254.8,337.9,253.8,337.9,252.8z M258.2,192.1
		c-0.7,0-1.5,0-2.2,0c-2.4,0.2-4.2,2-4.2,4.3c0,2.2,1.7,4,4.1,4.2c0.7,0.1,1.5,0.1,2.2,0.1c19.1,1,34,9.5,44.7,25.2
		c6.2,9.1,9,19.4,9.3,30.4c0.1,2.8,1.9,4.6,4.3,4.6c2.5,0,4.4-2,4.2-4.9c-0.3-4.3-0.5-8.6-1.4-12.8
		C312.7,213.9,288.2,193.4,258.2,192.1z M181.9,274.4c-3.3,0-5,2.8-3.8,6.5c7.9,24.1,23.5,41.3,46.8,51.2c5.5,2.3,11.5,3.6,17.3,5.1
		c3.3,0.8,5.9-1.7,5.5-4.8c-0.3-2.1-1.7-3.2-4.8-3.8c-19.5-3.8-35-13.9-46.6-29.9c-4.6-6.3-7.8-13.3-10.2-20.7
		C185.3,275.3,184,274.3,181.9,274.4z M246.2,315c-0.1-1.9-1.1-3.3-3.1-3.9c-1.6-0.5-3.2-0.9-4.8-1.4c-16.2-5.7-27.5-16.5-34.2-32.3
		c-1.2-2.9-3.4-4-5.9-3c-2.4,1-3.2,3.4-2.1,6.2c3.6,8.9,8.9,16.7,15.9,23.2c8.1,7.5,17.6,12.7,28.3,15.4
		C243.6,320,246.3,318.2,246.2,315z"/>
	<path class="st2" d="M286.2,256c0.4,16.5-12.7,30.4-29.5,30.7c-16.4,0.3-30.4-12.6-30.7-29.5c-0.3-16.5,12.8-30.2,29.4-30.6
		C271.9,226.2,285.8,239.2,286.2,256z M256.2,278.1c11.9,0,21.4-9.6,21.4-21.6c0-11.8-9.5-21.3-21.4-21.3c-12,0-21.5,9.5-21.5,21.5
		C234.7,268.7,244.2,278.1,256.2,278.1z"/>
	<path class="st1" d="M337.9,252.8c0,1,0,2,0,3c0.1,3-1.6,5.1-4.1,5.2c-2.6,0.1-4.3-1.9-4.5-4.9c-0.5-5-0.6-10.1-1.7-15
		c-7.2-33.3-36.2-56.9-70.3-57.5c-2.1,0-3.9-0.5-4.9-2.5c-1.5-3,0.8-6.2,4.2-6.2c34.3,0,65.8,22.6,76.8,55.1c1.2,3.7,2.3,7.5,3,11.3
		c0.8,3.8,1.1,7.7,1.6,11.6C337.9,252.8,337.9,252.8,337.9,252.8z"/>
	<path class="st1" d="M258.2,192.1c30,1.2,54.5,21.7,61,51.1c0.9,4.2,1.1,8.5,1.4,12.8c0.2,2.9-1.7,4.9-4.2,4.9
		c-2.4,0-4.2-1.7-4.3-4.6c-0.3-11-3.1-21.3-9.3-30.4c-10.7-15.7-25.6-24.2-44.7-25.2c-0.7,0-1.5-0.1-2.2-0.1c-2.4-0.2-4-1.9-4.1-4.2
		c0-2.3,1.7-4.2,4.2-4.3C256.7,192.1,257.5,192.1,258.2,192.1z"/>
	<path class="st1" d="M181.9,274.4c2.2,0,3.4,1,4.2,3.6c2.3,7.4,5.6,14.4,10.2,20.7c11.6,16.1,27.1,26.2,46.6,29.9
		c3.1,0.6,4.5,1.7,4.8,3.8c0.5,3.1-2.2,5.7-5.5,4.8c-5.8-1.5-11.8-2.8-17.3-5.1c-23.3-9.9-38.9-27.1-46.8-51.2
		C176.8,277.2,178.5,274.4,181.9,274.4z"/>
	<path class="st1" d="M246.2,315c0,3.1-2.6,5-5.7,4.2c-10.8-2.7-20.2-7.8-28.3-15.4c-7-6.5-12.3-14.3-15.9-23.2
		c-1.1-2.8-0.3-5.3,2.1-6.2c2.5-1,4.6,0.1,5.9,3c6.7,15.8,18,26.6,34.2,32.3c1.6,0.6,3.2,0.9,4.8,1.4
		C245.1,311.8,246.1,313.2,246.2,315z"/>
	<path class="st0" d="M256.2,278.1c-12,0-21.5-9.5-21.5-21.4c0-12,9.5-21.5,21.5-21.5c11.9,0,21.4,9.5,21.4,21.3
		C277.6,268.5,268.1,278.1,256.2,278.1z M256.1,243.8c-7.1,0-12.9,5.8-12.9,13c0,7,5.8,12.8,12.8,12.9c7.1,0,13-5.8,13-12.9
		C269.1,249.6,263.2,243.8,256.1,243.8z"/>
	<path class="st1" d="M256.1,243.8c7.1,0,12.9,5.8,12.9,13c0,7.1-5.9,12.9-13,12.9c-7,0-12.8-5.8-12.8-12.9
		C243.2,249.6,249,243.8,256.1,243.8z M256.1,261c2.4,0,4.3-2,4.3-4.4c0-2.3-2-4.2-4.3-4.2c-2.3,0-4.4,2.1-4.3,4.4
		C251.9,259.1,253.9,261,256.1,261z"/>
	<path class="st0" d="M256.1,261c-2.3,0-4.2-1.9-4.3-4.2c-0.1-2.3,1.9-4.4,4.3-4.4c2.3,0,4.2,1.9,4.3,4.2
		C260.5,259,258.5,261,256.1,261z"/>
</g>
</svg>
