<svg xmlns="http://www.w3.org/2000/svg" viewBox="0 0 512 512">
<path fill="#F1471D" d="M451.757,229.022L87.794,22.216c-15.55-8.734-29.462-7.916-37.922,0.27l0,0  c-5.999,5.731-9.277,15.009-9.277,27.015v412.793c0,12.012,3.546,21.29,9.277,27.016l0,0c8.731,8.459,22.372,9.277,37.922,0.269  L451.757,282.77C477.956,268.038,477.956,244.031,451.757,229.022z"/>
<path fill="#FCD117" d="M420.639,300.938c4.372-15.004,6.556-31.105,6.556-47.47c0-96.313-78.312-174.616-174.62-174.616  c-96.311,0-174.615,78.303-174.615,174.616c0,80.758,54.842,148.693,129.326,168.614L420.639,300.938z"/>
<path fill="#F48B15" d="M365.135,256.037c0,60.271-48.856,109.134-109.134,109.134c-60.276,0-109.135-48.863-109.135-109.134  c0-60.276,48.859-109.135,109.135-109.135C316.278,146.901,365.135,195.76,365.135,256.037z"/>
<path fill="#FFFFFF" d="M256,198.742v67.108c-3.821-2.174-8.185-3.542-12.824-3.542  c-14.185,0-25.373,11.466-25.373,25.371c0,14.195,11.457,25.379,25.373,25.379c14.192,0,26.467-11.465,26.467-25.379v-61.655  h24.553v-27.283H256z"/>
</svg>