<?xml version="1.0" encoding="UTF-8" standalone="no"?>
<!-- Created with Inkscape (http://www.inkscape.org/) -->

<svg
   xmlns:dc="http://purl.org/dc/elements/1.1/"
   xmlns:cc="http://creativecommons.org/ns#"
   xmlns:rdf="http://www.w3.org/1999/02/22-rdf-syntax-ns#"
   xmlns:svg="http://www.w3.org/2000/svg"
   xmlns="http://www.w3.org/2000/svg"
   xmlns:sodipodi="http://sodipodi.sourceforge.net/DTD/sodipodi-0.dtd"
   xmlns:inkscape="http://www.inkscape.org/namespaces/inkscape"
   version="1.1"
   id="svg3822"
   width="612"
   height="792"
   viewBox="0 0 612 792"
   sodipodi:docname="kbs.svg"
   inkscape:version="0.92.2 (5c3e80d, 2017-08-06)">
  <metadata
     id="metadata3828">
    <rdf:RDF>
      <cc:Work
         rdf:about="">
        <dc:format>image/svg+xml</dc:format>
        <dc:type
           rdf:resource="http://purl.org/dc/dcmitype/StillImage" />
        <dc:title />
      </cc:Work>
    </rdf:RDF>
  </metadata>
  <defs
     id="defs3826" />
  <sodipodi:namedview
     pagecolor="#ffffff"
     bordercolor="#666666"
     borderopacity="1"
     objecttolerance="10"
     gridtolerance="10"
     guidetolerance="10"
     inkscape:pageopacity="0"
     inkscape:pageshadow="2"
     inkscape:window-width="838"
     inkscape:window-height="710"
     id="namedview3824"
     showgrid="false"
     inkscape:pagecheckerboard="true"
     inkscape:zoom="0.34570311"
     inkscape:cx="341.57768"
     inkscape:cy="345.45745"
     inkscape:window-x="509"
     inkscape:window-y="938"
     inkscape:window-maximized="0"
     inkscape:current-layer="svg3822" />
  <g
     transform="matrix(0.08901268,0,0,-0.07153593,97.30125,561.28428)"
     id="g3880"
     style="fill:#ffffff;stroke:none">
    <path
       d="m 4030,4990 c 0,-5 -9,-10 -20,-10 -11,0 -23,-7 -26,-15 -4,-8 -10,-15 -15,-15 -38,0 -145,-172 -188,-302 -17,-50 -34,-79 -72,-117 -27,-27 -49,-54 -49,-60 0,-5 -4,-11 -9,-13 -12,-4 -74,-105 -100,-163 -12,-27 -27,-58 -32,-68 -48,-89 -135,-405 -173,-629 -52,-304 -86,-716 -86,-1043 0,-729 135,-1579 320,-2010 38,-90 93,-200 102,-203 4,-2 8,-8 8,-14 0,-12 61,-102 72,-106 4,-2 8,-8 8,-13 0,-9 17,-30 87,-105 12,-13 26,-24 31,-24 6,0 12,-7 16,-15 3,-8 12,-15 20,-15 7,0 16,-7 20,-15 3,-8 15,-15 26,-15 11,0 20,-4 20,-10 0,-17 222,-13 258,5 94,47 205,210 247,362 3,13 26,43 51,67 24,24 44,49 44,55 0,6 5,11 10,11 6,0 10,7 10,15 0,8 4,15 9,15 10,0 74,118 109,200 85,202 161,470 196,695 51,327 66,518 73,895 13,732 -63,1364 -234,1945 -71,245 -194,487 -307,608 -19,20 -40,37 -45,37 -6,0 -11,5 -11,10 0,6 -10,15 -22,20 -13,6 -30,14 -38,18 -50,29 -68,32 -185,32 -77,0 -125,-4 -125,-10 z m 290,-355 c 7,-8 23,-15 35,-15 13,0 25,-7 29,-15 3,-8 12,-15 19,-15 22,0 187,-168 187,-190 0,-6 5,-10 10,-10 6,0 10,-6 10,-14 0,-8 3,-16 8,-18 11,-5 80,-136 122,-233 28,-63 70,-185 65,-185 -3,0 -31,56 -64,126 -33,69 -85,163 -115,209 -56,86 -172,215 -192,215 -7,0 -14,7 -18,15 -3,8 -15,15 -26,15 -11,0 -20,4 -20,9 0,5 -10,13 -22,16 -13,4 -38,14 -57,22 -40,18 -204,14 -223,-5 -7,-7 -22,-12 -34,-12 -12,0 -27,-7 -34,-15 -7,-8 -20,-15 -30,-15 -10,0 -23,-7 -30,-15 -7,-8 -16,-15 -20,-15 -11,0 -64,-45 -132,-113 -55,-56 -58,-57 -64,-33 -3,13 0,35 7,48 22,42 163,168 188,168 7,0 14,7 17,15 4,8 14,15 24,15 10,0 23,7 30,15 7,8 20,15 29,15 9,0 25,7 35,15 29,22 248,21 266,0 z m 80,-360 c 25,-13 52,-28 60,-32 25,-12 110,-88 110,-99 0,-4 11,-17 25,-30 14,-13 25,-27 25,-33 0,-5 4,-11 9,-13 12,-5 72,-103 109,-178 63,-132 148,-358 138,-368 -3,-2 -7,7 -11,20 -4,13 -27,65 -51,116 -24,52 -44,96 -44,98 0,3 -16,30 -35,60 -19,30 -35,59 -35,64 0,6 -3,10 -8,10 -4,0 -13,12 -19,28 -7,15 -26,41 -43,59 -16,18 -30,34 -30,37 0,4 -24,31 -54,61 -66,66 -150,121 -199,130 -21,4 -40,11 -43,16 -15,25 -146,4 -244,-38 -83,-37 -234,-173 -303,-273 -16,-25 -32,-47 -34,-50 -2,-2 -8,2 -14,10 -14,23 1,102 26,135 42,56 178,185 195,185 5,0 10,4 12,8 3,8 104,72 114,72 3,0 20,7 37,14 45,21 80,25 177,20 68,-3 95,-9 130,-29 z m -43,-330 c 19,-8 46,-15 59,-15 12,0 26,-5 29,-11 4,-5 17,-14 28,-20 49,-21 120,-86 176,-159 14,-19 28,-37 31,-40 8,-8 31,-50 68,-125 69,-138 160,-430 176,-560 l 6,-50 -14,50 c -50,176 -185,476 -236,525 -3,3 -18,23 -35,45 -59,82 -188,185 -230,185 -9,0 -26,7 -40,16 -18,12 -45,15 -122,12 -102,-4 -126,-11 -231,-62 -96,-47 -112,-56 -112,-67 0,-5 -6,-9 -13,-9 -7,0 -24,-13 -37,-30 -14,-16 -28,-29 -33,-30 -4,0 -27,-21 -51,-46 -52,-54 -61,-47 -51,38 7,55 12,66 47,100 22,21 59,52 84,70 24,17 44,35 44,40 0,4 5,8 10,8 12,0 73,41 78,53 2,4 12,7 22,7 9,0 23,7 30,15 7,8 20,15 29,15 10,0 26,7 37,15 10,8 30,15 44,15 14,0 36,7 50,15 33,19 112,19 157,0 z m 15,-356 c 108,-21 200,-85 292,-201 33,-42 41,-56 91,-158 69,-137 123,-319 170,-566 26,-135 30,-198 6,-87 -21,96 -100,321 -147,419 -52,107 -126,224 -175,274 -42,44 -113,100 -127,100 -5,0 -15,7 -22,15 -7,8 -22,15 -34,15 -12,0 -28,6 -35,13 -17,17 -185,17 -203,-1 -6,-6 -21,-12 -31,-12 -10,0 -31,-6 -45,-14 -15,-8 -34,-17 -42,-20 -8,-4 -28,-15 -45,-26 -16,-11 -37,-23 -45,-27 -15,-7 -41,-29 -99,-80 -20,-18 -39,-33 -43,-33 -17,0 -6,-45 23,-100 29,-55 32,-57 48,-42 42,40 92,76 128,91 11,6 24,15 28,20 3,6 14,11 24,11 10,0 24,7 31,15 7,8 24,15 39,15 15,0 37,7 49,16 39,27 196,11 262,-27 8,-5 22,-12 30,-16 24,-11 140,-117 140,-128 0,-3 8,-15 19,-26 37,-40 111,-198 160,-344 77,-230 132,-531 129,-705 0,-47 -3,-71 -5,-55 -41,318 -115,611 -203,810 -29,63 -119,205 -131,205 -5,0 -9,7 -9,15 0,8 -3,15 -7,15 -5,0 -25,16 -47,35 -66,62 -114,78 -227,78 -55,0 -110,-5 -122,-10 -12,-6 -46,-21 -74,-34 -29,-13 -53,-27 -53,-30 0,-4 -11,-10 -25,-13 -55,-14 -10,-76 54,-76 22,0 46,7 55,15 8,8 23,15 34,15 11,0 39,7 62,15 23,8 53,15 67,15 30,0 118,-26 158,-47 45,-24 134,-96 135,-110 0,-6 4,-13 8,-15 11,-4 44,-53 77,-112 67,-120 151,-414 141,-491 -13,-98 -101,-361 -162,-485 -22,-44 -75,-124 -86,-128 -4,-2 -8,-10 -8,-18 0,-8 -2,-14 -4,-14 -2,0 -11,-3 -19,-6 -11,-4 -20,8 -32,40 -10,25 -21,46 -25,46 -4,0 -19,-11 -33,-24 -35,-32 -144,-116 -151,-116 -4,0 -24,-11 -45,-25 -22,-13 -51,-27 -65,-31 -14,-3 -26,-10 -26,-15 0,-5 -10,-9 -22,-9 -13,0 -36,-7 -52,-15 -32,-17 -231,-22 -240,-6 -3,5 -17,12 -31,15 -38,10 -126,65 -160,102 -51,53 -75,84 -75,94 0,6 -4,10 -8,10 -14,0 -98,174 -136,281 -52,144 -142,577 -123,595 2,2 10,-24 17,-58 54,-276 207,-640 307,-734 13,-12 23,-26 23,-33 0,-6 6,-11 13,-11 6,-1 23,-14 37,-30 13,-17 30,-30 37,-30 7,0 13,-3 13,-8 0,-9 84,-48 125,-57 64,-16 226,2 233,25 2,5 10,10 18,10 19,0 94,40 94,51 0,5 5,9 11,9 11,0 102,68 158,118 30,28 33,34 26,69 -9,51 -32,93 -51,93 -9,0 -42,-20 -74,-45 -32,-25 -63,-45 -70,-45 -6,0 -13,-7 -16,-15 -4,-8 -16,-15 -29,-15 -12,0 -28,-7 -35,-15 -7,-8 -22,-15 -34,-15 -12,0 -31,-7 -42,-15 -28,-21 -246,-21 -264,0 -7,8 -20,15 -30,15 -10,0 -23,7 -30,15 -7,8 -17,15 -22,15 -9,0 -99,89 -128,127 -38,49 -94,161 -128,256 -55,152 -96,342 -127,597 -21,177 -17,188 11,25 42,-242 126,-515 189,-616 14,-21 25,-43 25,-49 0,-5 5,-10 10,-10 6,0 10,-7 10,-15 0,-8 5,-15 10,-15 6,0 10,-5 10,-12 0,-18 116,-125 153,-141 112,-48 174,-57 234,-32 19,8 45,15 57,15 20,0 91,33 164,76 26,15 32,24 30,47 -2,18 -13,34 -30,45 -23,14 -32,14 -67,2 -23,-7 -46,-19 -52,-27 -6,-7 -19,-13 -28,-13 -9,0 -29,-7 -45,-15 -38,-20 -174,-20 -213,-1 -15,8 -35,17 -43,20 -36,14 -140,107 -140,126 0,5 -4,10 -8,10 -5,0 -15,12 -23,28 -8,15 -16,29 -19,32 -44,44 -170,454 -170,555 0,34 118,362 166,460 21,44 56,108 77,142 l 39,63 19,-37 c 10,-20 23,-51 29,-69 l 11,-33 41,37 c 22,20 49,45 59,55 11,9 23,17 29,17 5,0 13,6 17,13 10,16 33,29 118,70 95,46 102,49 165,63 73,15 109,16 172,3 z M 3484,1636 c 76,-160 186,-305 287,-379 20,-15 43,-27 51,-27 9,0 21,-6 27,-14 6,-8 26,-16 44,-19 18,-3 53,-11 80,-18 37,-10 57,-10 95,0 26,7 64,16 85,20 21,5 44,14 50,20 6,6 17,11 24,11 15,0 116,60 121,72 2,4 10,8 18,8 8,0 17,7 20,15 4,8 11,15 17,15 5,0 36,27 69,60 32,33 63,60 68,60 6,0 10,-25 10,-55 0,-53 -15,-105 -31,-105 -5,0 -23,-15 -41,-32 -18,-18 -48,-44 -67,-58 -18,-14 -38,-29 -45,-35 -19,-16 -49,-34 -73,-45 -13,-5 -23,-14 -23,-20 0,-5 -8,-10 -19,-10 -10,0 -24,-7 -31,-15 -7,-8 -23,-15 -35,-15 -12,0 -28,-7 -35,-15 -7,-8 -29,-15 -49,-15 -20,0 -52,-4 -71,-10 -43,-12 -150,4 -190,29 -8,5 -22,12 -30,15 -30,11 -100,66 -129,100 -58,68 -72,87 -102,136 -82,132 -151,315 -208,552 -33,138 -24,134 28,-12 26,-74 65,-171 85,-214 z m -10,-344 c 20,-40 36,-77 36,-82 0,-6 4,-10 8,-10 4,0 13,-12 19,-27 11,-28 43,-83 53,-93 3,-3 21,-27 40,-55 78,-112 145,-175 245,-231 47,-25 58,-27 165,-27 87,0 122,4 145,17 17,9 34,16 38,16 25,0 227,165 227,185 0,2 13,18 29,34 16,16 37,44 47,60 26,45 44,40 44,-11 0,-59 -31,-113 -99,-172 -13,-12 -39,-36 -57,-54 -19,-17 -37,-32 -40,-32 -5,0 -19,-11 -48,-37 -8,-7 -32,-22 -55,-34 -23,-11 -44,-25 -47,-30 -3,-5 -15,-9 -28,-9 -12,0 -31,-7 -42,-15 -13,-10 -47,-14 -116,-15 -93,0 -110,4 -178,42 -8,4 -25,12 -36,17 -36,16 -184,170 -184,191 0,6 -4,10 -10,10 -5,0 -10,6 -10,14 0,8 -3,16 -7,18 -25,10 -143,265 -194,417 -35,102 -37,130 -4,46 13,-33 40,-93 59,-133 z m 16,-276 c 0,-23 112,-239 166,-321 52,-79 145,-185 163,-185 5,0 11,-7 15,-15 3,-8 12,-15 20,-15 7,0 16,-7 20,-15 3,-8 14,-15 24,-15 11,0 25,-6 31,-14 17,-20 64,-29 161,-29 86,0 180,17 180,34 0,5 8,9 19,9 10,0 24,7 31,15 7,8 19,15 26,15 8,0 14,5 14,10 0,6 7,13 15,17 20,7 66,46 121,101 23,23 45,42 48,42 3,0 6,-15 6,-34 0,-27 -9,-43 -44,-78 -52,-51 -106,-98 -113,-98 -3,0 -22,-13 -43,-30 -21,-16 -45,-30 -53,-30 -8,0 -20,-6 -26,-14 -6,-8 -24,-16 -39,-19 -111,-23 -144,-27 -195,-21 -31,3 -60,10 -63,15 -3,5 -16,9 -28,9 -13,0 -29,7 -36,15 -7,8 -19,15 -26,15 -8,0 -22,8 -33,17 -10,10 -36,34 -57,53 -22,20 -52,53 -69,74 -16,21 -36,45 -42,52 -7,7 -13,15 -13,19 0,3 -15,29 -33,58 -40,64 -111,218 -143,311 -27,79 -27,79 -14,71 6,-3 10,-12 10,-19 z"
       id="path3872"
       inkscape:connector-curvature="0"
       style="fill:#ffffff" />
    <path
       d="m 1058,3975 c -5,-5 -8,-700 -8,-1545 V 893 l 68,-6 c 37,-4 193,-7 347,-7 h 280 l 37,33 c 138,123 221,459 222,897 0,255 -32,435 -115,640 l -30,75 26,90 c 35,121 62,284 70,430 12,213 -25,520 -82,678 -37,103 -119,226 -150,227 -6,0 -13,4 -15,10 -4,12 -639,26 -650,15 z m 528,-520 c 11,-8 27,-15 37,-15 9,0 17,-7 17,-15 0,-8 3,-15 8,-15 12,0 38,-69 52,-134 16,-80 15,-234 -3,-326 -19,-92 -28,-117 -59,-152 -27,-32 -38,-33 -246,-21 l -122,6 v 343 343 h 149 c 113,0 153,-4 167,-14 z m 66,-1227 c 74,-74 101,-179 100,-393 0,-214 -33,-342 -106,-409 -31,-28 -32,-28 -120,-22 -49,3 -127,6 -173,6 h -83 v 425 425 h 175 175 z"
       id="path3874"
       inkscape:connector-curvature="0"
       style="fill:#ffffff" />
    <path
       d="M 7,3768 C 3,3656 0,2968 0,2238 V 910 h 115 115 l 1,763 c 1,419 4,749 9,732 7,-30 86,-332 120,-460 20,-77 76,-290 140,-540 23,-88 57,-221 77,-295 20,-74 40,-154 45,-177 l 9,-42 150,-3 149,-3 v 26 c 0,14 -9,52 -19,85 -11,32 -40,133 -65,224 -48,173 -203,729 -235,840 -10,36 -40,141 -66,234 l -47,169 17,61 c 9,33 43,153 75,266 91,317 118,412 149,523 16,56 45,156 64,222 55,188 117,413 117,425 0,6 -50,10 -144,10 H 633 l -17,-62 c -10,-35 -33,-119 -52,-188 -20,-69 -44,-156 -55,-195 -10,-38 -32,-117 -49,-175 -16,-58 -36,-130 -44,-160 -41,-157 -178,-645 -182,-649 -2,-2 -4,318 -4,712 v 717 H 122 13 Z"
       id="path3876"
       inkscape:connector-curvature="0"
       style="fill:#ffffff" />
    <path
       d="m 2333,3951 c -41,-18 -111,-101 -146,-175 -41,-82 -69,-179 -94,-323 -25,-139 -25,-586 0,-725 29,-164 80,-302 137,-371 34,-41 56,-63 70,-70 8,-4 22,-11 30,-16 70,-40 78,-41 202,-39 l 123,3 36,-35 c 95,-93 132,-352 83,-591 -18,-90 -50,-168 -80,-196 -25,-23 -27,-23 -298,-23 h -274 l -4,-228 c -2,-125 -3,-234 0,-243 5,-20 135,-29 433,-29 167,0 212,3 237,16 18,8 32,20 32,25 0,5 6,9 13,9 24,1 78,88 127,205 39,92 75,271 91,455 14,163 7,456 -16,590 -36,216 -111,419 -188,505 l -35,39 -123,13 c -68,6 -154,12 -191,12 -60,1 -70,4 -93,29 -49,53 -68,123 -73,278 -5,153 5,220 40,294 44,90 24,85 334,88 l 274,3 v 249 250 h -223 c -123,0 -264,2 -313,5 -49,3 -99,1 -111,-4 z"
       id="path3878"
       inkscape:connector-curvature="0"
       style="fill:#ffffff" />
  </g>
</svg>
