<?xml version="1.0" encoding="UTF-8" standalone="no"?>
<!-- Created with Inkscape (http://www.inkscape.org/) -->

<svg
   xmlns:dc="http://purl.org/dc/elements/1.1/"
   xmlns:cc="http://creativecommons.org/ns#"
   xmlns:rdf="http://www.w3.org/1999/02/22-rdf-syntax-ns#"
   xmlns:svg="http://www.w3.org/2000/svg"
   xmlns="http://www.w3.org/2000/svg"
   xmlns:sodipodi="http://sodipodi.sourceforge.net/DTD/sodipodi-0.dtd"
   xmlns:inkscape="http://www.inkscape.org/namespaces/inkscape"
   version="1.1"
   id="svg3822"
   width="612"
   height="792"
   viewBox="0 0 612 792"
   sodipodi:docname="linn.svg"
   inkscape:version="0.92.2 (5c3e80d, 2017-08-06)">
  <metadata
     id="metadata3828">
    <rdf:RDF>
      <cc:Work
         rdf:about="">
        <dc:format>image/svg+xml</dc:format>
        <dc:type
           rdf:resource="http://purl.org/dc/dcmitype/StillImage" />
        <dc:title />
      </cc:Work>
    </rdf:RDF>
  </metadata>
  <defs
     id="defs3826" />
  <sodipodi:namedview
     pagecolor="#ffffff"
     bordercolor="#666666"
     borderopacity="1"
     objecttolerance="10"
     gridtolerance="10"
     guidetolerance="10"
     inkscape:pageopacity="0"
     inkscape:pageshadow="2"
     inkscape:window-width="838"
     inkscape:window-height="710"
     id="namedview3824"
     showgrid="false"
     inkscape:pagecheckerboard="true"
     inkscape:zoom="0.34570311"
     inkscape:cx="341.57768"
     inkscape:cy="345.45745"
     inkscape:window-x="713"
     inkscape:window-y="935"
     inkscape:window-maximized="0"
     inkscape:current-layer="svg3822" />
  <g
     transform="matrix(0.35244036,0,0,0.32124455,-128.37594,579.47777)"
     id="layer1"
     style="fill:#ffffff">
    <g
       transform="matrix(10.846167,0,0,10.846167,-7699.5731,388.46733)"
       id="g89414"
       style="fill:#ffffff">
      <path
         d="m 786.60053,-107.41188 c 0,-22.03 17.85875,-39.8875 39.88875,-39.8875 22.02875,0 39.8875,17.8575 39.8875,39.8875 0,22.03 -17.85875,39.8875 -39.8875,39.8875 -22.03,0 -39.88875,-17.8575 -39.88875,-39.8875 z"
         id="path89349"
         style="fill:#ffffff;stroke:#007cc2;stroke-width:1.76125002;stroke-linecap:butt;stroke-linejoin:miter;stroke-miterlimit:3.86400008;stroke-dasharray:none;stroke-opacity:1"
         inkscape:connector-curvature="0" />
      <path
         d="m 787.23552,-104.72189 h 78.70625"
         id="path89353"
         style="fill:#ffffff;stroke:#007cc2;stroke-width:1.76125002;stroke-linecap:butt;stroke-linejoin:miter;stroke-miterlimit:3.86400008;stroke-dasharray:none;stroke-opacity:1"
         inkscape:connector-curvature="0" />
      <path
         d="m 826.48929,-106.8644 -25.39,-27.91 h 50.78 z"
         id="path89357"
         style="fill:#ffffff;stroke:#007cc2;stroke-width:1.76125002;stroke-linecap:butt;stroke-linejoin:miter;stroke-miterlimit:3.86400008;stroke-dasharray:none;stroke-opacity:1"
         inkscape:connector-curvature="0" />
      <path
         d="m 785.58553,-36.14689 h 15.415 l 2.3925,-4.62 -1.14875,-0.57375 c -1.22,2.25 -4.595,3.5175 -7.53875,3.5175 -2.945,0 -3.18375,-0.9575 -3.16,-1.79375 v -13.18875 c 0,-0.64625 0.69375,-1.14875 1.26875,-1.14875 h 1.1725 v -1.34125 h -8.35375 v 1.34125 h 1.3175 c 0.5975,0 1.14875,0.55 1.14875,1.29125 v 13.52375 c 0,0.88625 -0.36,1.6525 -1.2925,1.6525 h -1.22125 v 1.34"
         id="path89361"
         style="fill:#ffffff;fill-opacity:1;fill-rule:nonzero;stroke:none"
         inkscape:connector-curvature="0" />
      <path
         d="m 847.75804,-52.14814 v 13.4375 c 0,0.525 -0.43,1.19375 -1.09875,1.265 h -0.715 v 1.33625 h 5.99 v -1.33625 h -0.835 c -0.3575,-0.095 -1.02625,-0.54875 -1.07375,-1.265 v -11.71875 l 12.81625,14.5825 2.14875,-0.2625 v -16.2775 c 0,-0.59625 0.50125,-1.4075 1.2175,-1.48 h 0.715 v -1.33625 h -6.015 v 1.33625 h 0.74125 c 0.42875,0 1.1925,0.57375 1.21625,1.4325 v 11.24125 l -12.29125,-14.01 h -4.98875 v 1.33625 h 0.645 c 0.95375,0 1.5275,0.62125 1.5275,1.71875"
         id="path89365"
         style="fill:#ffffff;fill-opacity:1;fill-rule:nonzero;stroke:none"
         inkscape:connector-curvature="0" />
      <path
         d="m 822.80553,-52.14814 v 13.4375 c 0,0.525 -0.43,1.19375 -1.0975,1.265 h -0.71625 v 1.33625 h 5.99125 v -1.33625 h -0.83625 c -0.3575,-0.095 -1.02625,-0.54875 -1.07375,-1.265 v -11.71875 l 12.8175,14.5825 2.1475,-0.2625 v -16.2775 c 0,-0.59625 0.50125,-1.4075 1.2175,-1.48 h 0.71625 v -1.33625 h -6.015 v 1.33625 h 0.74 c 0.42875,0 1.19375,0.57375 1.2175,1.4325 v 11.24125 l -12.2925,-14.01 h -4.98875 v 1.33625 h 0.645 c 0.955,0 1.5275,0.62125 1.5275,1.71875"
         id="path89369"
         style="fill:#ffffff;fill-opacity:1;fill-rule:nonzero;stroke:none"
         inkscape:connector-curvature="0" />
      <path
         d="m 813.29053,-38.806903 v -13.7 c 0,-0.86 0.85875,-1.45625 1.6225,-1.36125 h 0.74 v -1.33625 h -8.1625 v 1.33625 h 0.71625 c 0.7875,-0.095 1.64625,0.50125 1.64625,1.36125 v 13.62875 c 0,0.85875 -0.85875,1.43125 -1.64625,1.43125 h -0.71625 v 1.3375 h 8.1625 v -1.3375 h -0.74 c -0.76375,0.07125 -1.6225,-0.50125 -1.6225,-1.36"
         id="path89373"
         style="fill:#ffffff;fill-opacity:1;fill-rule:nonzero;stroke:none"
         inkscape:connector-curvature="0" />
    </g>
  </g>
</svg>
