<?xml version="1.0" encoding="UTF-8" standalone="no"?>
<!-- Created with Inkscape (http://www.inkscape.org/) -->

<svg
   xmlns:dc="http://purl.org/dc/elements/1.1/"
   xmlns:cc="http://creativecommons.org/ns#"
   xmlns:rdf="http://www.w3.org/1999/02/22-rdf-syntax-ns#"
   xmlns:svg="http://www.w3.org/2000/svg"
   xmlns="http://www.w3.org/2000/svg"
   xmlns:sodipodi="http://sodipodi.sourceforge.net/DTD/sodipodi-0.dtd"
   xmlns:inkscape="http://www.inkscape.org/namespaces/inkscape"
   version="1.1"
   id="svg3822"
   width="612"
   height="792"
   viewBox="0 0 612 792"
   sodipodi:docname="sbs.svg"
   inkscape:version="0.92.2 (5c3e80d, 2017-08-06)">
  <metadata
     id="metadata3828">
    <rdf:RDF>
      <cc:Work
         rdf:about="">
        <dc:format>image/svg+xml</dc:format>
        <dc:type
           rdf:resource="http://purl.org/dc/dcmitype/StillImage" />
        <dc:title></dc:title>
      </cc:Work>
    </rdf:RDF>
  </metadata>
  <defs
     id="defs3826" />
  <sodipodi:namedview
     pagecolor="#ffffff"
     bordercolor="#666666"
     borderopacity="1"
     objecttolerance="10"
     gridtolerance="10"
     guidetolerance="10"
     inkscape:pageopacity="0"
     inkscape:pageshadow="2"
     inkscape:window-width="838"
     inkscape:window-height="710"
     id="namedview3824"
     showgrid="false"
     inkscape:pagecheckerboard="true"
     inkscape:zoom="0.34570311"
     inkscape:cx="341.57768"
     inkscape:cy="345.45745"
     inkscape:window-x="14"
     inkscape:window-y="857"
     inkscape:window-maximized="0"
     inkscape:current-layer="svg3822" />
  <path
     inkscape:connector-curvature="0"
     d="m 361.83139,383.29804 -25.23742,-51.62549 v 0 c -1.7721,-3.53961 -2.85637,-8.40143 -2.85637,-13.95363 0,-10.75921 4.14542,-19.50582 9.24908,-19.50582 h 27.92314 v -26.9185 h -42.70119 c -13.24485,0 -24.25816,19.88026 -24.25816,51.01703 0,13.29251 2.42057,25.39735 6.38483,34.4833 l 29.73988,62.5134 c 0,0 5.00915,8.07965 3.27117,21.38386 -1.7406,13.3042 -9.33571,13.3042 -12.18158,13.3042 -2.8485,0 -27.20642,0 -27.20642,0 v 54.55078 h 41.29138 c 16.70242,0 30.24656,-28.4572 30.24656,-63.58406 v -0.4973 c 0.46207,-26.23398 -5.87551,-45.07284 -13.6649,-61.16777"
     id="path109"
     style="fill:#ffffff;stroke-width:3.91915345"
     inkscape:transform-center-x="-797.56761"
     inkscape:transform-center-y="1083.1169" />
  <path
     inkscape:connector-curvature="0"
     d="m 528.54849,383.29804 -25.22954,-51.62549 v 0 c -1.77473,-3.53961 -2.86162,-8.40143 -2.86162,-13.95363 0,-10.75921 4.15067,-19.50582 9.25433,-19.50582 h 27.92052 v -26.9185 h -42.70119 c -13.24485,0 -24.25817,19.88026 -24.25817,51.01703 0,13.29251 2.42057,25.39735 6.38484,34.4833 l 29.73462,62.5134 c 0,0 5.01441,8.07965 3.27118,21.38386 -1.73535,13.3042 -9.33047,13.3042 -12.18159,13.3042 -2.8485,0 -27.20379,0 -27.20379,0 v 54.55078 h 41.294 c 16.6998,0 30.24657,-28.4572 30.24657,-63.58406 v -0.4973 c 0.45418,-26.23398 -5.87289,-45.07284 -13.67016,-61.16777"
     id="path111"
     style="fill:#ffffff;stroke-width:3.91915345"
     inkscape:transform-center-x="-964.2896"
     inkscape:transform-center-y="1083.1169" />
  <g
     transform="matrix(2.6253422,0,0,5.8505764,81.268947,174.19258)"
     id="g115"
     style="fill:#ffffff"
     inkscape:transform-center-x="-882.09437"
     inkscape:transform-center-y="1083.2339">
    <path
       inkscape:connector-curvature="0"
       d="m 146.132,45.376 c 0,-4.868 -2.719,-9.564 -8.164,-11.424 4.121,-1.263 6.258,-4.294 6.258,-8.555 0,-2.855 -1.354,-5.246 -3.478,-6.806 -3.055,-2.104 -7.632,-1.94 -7.632,-1.94 l -0.003,-0.009 c -4.761,0 -17.951,0 -17.951,0 l 0.007,40.502 c 0,0 13.081,0 19.098,0 1.611,-0.074 5.016,-0.517 7.768,-2.765 2.444,-2.153 4.097,-5.374 4.097,-9.003 z M 124.875,21.271 h 4.309 c 0.654,0 5.16,10e-4 5.533,4.385 0.267,3.143 -1.872,5.107 -5.327,5.107 -1.556,0 -4.515,0 -4.515,0 z m 5.177,26.56 c -1.557,0 -5.177,0 -5.177,0 v -10.79 h 4.974 c 0.652,0 5.677,0.003 6.05,4.989 0.268,3.569 -2.391,5.801 -5.847,5.801 z"
       id="path113"
       style="fill:#ffffff" />
  </g>
  <path
     d="m 275.06831,406.69387 c 2.62657,-27.51494 1.96336,-33.83914 -11.5084,-53.27594 -3.40373,-4.91295 -6.02154,-9.31808 -1.39655,-8.01273 4.26561,1.1963 1.10439,-9.05638 5.08076,-6.49866 -6.26404,-30.61787 -40.7425,-48.80229 -67.01696,-58.9615 -6.22021,-1.44242 -12.44918,-2.88795 -18.66647,-4.33971 -3.45048,0.009 -8.29166,-0.70719 -11.75091,-0.70719 -22.10818,2.95647 -42.87824,3.07798 -61.50671,16.96942 -5.52193,4.38956 -11.000039,12.33687 -17.214397,18.18129 -3.447554,3.66057 -4.817804,6.57345 -8.277049,10.23088 -13.784378,18.2623 -19.969524,38.68979 -22.000077,61.30426 -0.616469,45.21025 13.775606,80.25195 53.805223,103.64838 4.29775,2.51411 33.4179,17.18749 48.75369,19.23742 18.14349,2.4144 42.50133,-5.00019 49.40521,-8.66386 5.52193,-4.38643 11.39153,-4.0313 15.52568,-9.14049 3.45048,-3.65123 11.51425,-9.27135 13.57402,-13.6609 9.64732,-16.79184 35.99188,-46.62464 33.19294,-66.31067 z"
     id="path119"
     inkscape:connector-curvature="0"
     style="fill:#ffffff;stroke-width:3.01695919" />
  <path
     d="m 235.07668,397.36646 c 1.57769,-16.50835 1.17742,-20.3091 -6.89511,-31.96993 -2.04808,-2.94091 -3.61701,-5.59209 -0.83852,-4.80703 2.55646,0.71342 3.35406,-2.82251 3.0473,-3.89732 -3.7631,-18.36509 -24.44551,-29.27513 -40.21953,-35.3688 -3.72804,-0.8723 -7.46776,-1.74461 -11.19288,-2.61067 -2.07729,0.003 -4.98142,-0.43616 -7.05872,-0.4237 -13.25847,1.77887 -25.71935,1.8443 -36.90344,10.17791 -3.31025,2.6325 -6.60294,7.40524 -10.32806,10.91939 -2.06562,2.18698 -2.88367,3.93782 -4.96097,6.13416 -8.27122,10.95052 -11.98463,23.20951 -13.20297,36.78318 -0.37104,27.1193 8.27413,48.14493 32.28431,62.18591 2.57982,1.50784 20.05716,10.3181 29.25162,11.53932 10.89194,1.44554 25.50023,-3.0001 29.64313,-5.19021 3.31608,-2.64494 6.83961,-2.42687 9.31425,-5.50485 2.07145,-2.19321 6.90679,-5.55783 8.15141,-8.18719 5.7878,-10.07512 21.59689,-27.96668 19.90818,-39.78017 z"
     id="path121"
     inkscape:connector-curvature="0"
     style="fill:#b3b3b3;stroke-width:3.01695919" />
  <path
     d="m 126.23035,367.42464 c 11.62527,-24.65504 39.98288,-34.68655 63.34445,-22.41509 23.35279,12.2652 32.8628,42.18833 21.24336,66.84338 -11.62819,24.65193 -39.99163,34.68342 -63.34152,22.41509 -23.36449,-12.26521 -32.87448,-42.20081 -21.24629,-66.84338 z"
     id="path123"
     inkscape:connector-curvature="0"
     style="fill:#ffffff;stroke-width:3.01695919" />
</svg>
