<?xml version="1.0" encoding="UTF-8" standalone="no"?>
<!-- Created with Inkscape (http://www.inkscape.org/) -->

<svg
   xmlns:dc="http://purl.org/dc/elements/1.1/"
   xmlns:cc="http://creativecommons.org/ns#"
   xmlns:rdf="http://www.w3.org/1999/02/22-rdf-syntax-ns#"
   xmlns:svg="http://www.w3.org/2000/svg"
   xmlns="http://www.w3.org/2000/svg"
   xmlns:sodipodi="http://sodipodi.sourceforge.net/DTD/sodipodi-0.dtd"
   xmlns:inkscape="http://www.inkscape.org/namespaces/inkscape"
   version="1.1"
   id="svg3822"
   width="612"
   height="792"
   viewBox="0 0 612 792"
   sodipodi:docname="private_radio.svg"
   inkscape:version="0.92.2 (5c3e80d, 2017-08-06)">
  <metadata
     id="metadata3828">
    <rdf:RDF>
      <cc:Work
         rdf:about="">
        <dc:format>image/svg+xml</dc:format>
        <dc:type
           rdf:resource="http://purl.org/dc/dcmitype/StillImage" />
        <dc:title></dc:title>
      </cc:Work>
    </rdf:RDF>
  </metadata>
  <defs
     id="defs3826" />
  <sodipodi:namedview
     pagecolor="#ffffff"
     bordercolor="#666666"
     borderopacity="1"
     objecttolerance="10"
     gridtolerance="10"
     guidetolerance="10"
     inkscape:pageopacity="0"
     inkscape:pageshadow="2"
     inkscape:window-width="838"
     inkscape:window-height="710"
     id="namedview3824"
     showgrid="false"
     inkscape:pagecheckerboard="true"
     inkscape:zoom="0.34570311"
     inkscape:cx="341.57768"
     inkscape:cy="345.45745"
     inkscape:window-x="3283"
     inkscape:window-y="952"
     inkscape:window-maximized="0"
     inkscape:current-layer="svg3822" />
  <path
     style="fill:#ffffff;stroke-width:0.51007748"
     d="m 205.4891,504.94418 c -10.92861,-2.70203 -19.68117,-10.66549 -22.59954,-20.56206 -1.21503,-4.12028 -1.18591,-124.84154 0.0311,-129.05268 2.52117,-8.7237 9.61663,-15.99419 18.93313,-19.40018 l 3.07256,-1.1233 0.3106,-2.82822 c 0.84599,-7.70311 7.45611,-13.83889 16.30746,-15.13724 2.71038,-0.39757 8.14004,-0.004 9.36657,0.67952 0.2462,0.13713 41.75727,-10.06641 92.24679,-22.67453 l 91.79917,-22.92388 0.60253,-2.36066 c 1.76834,-6.92825 6.90729,-10.88875 14.58892,-11.24343 3.21755,-0.14854 4.33206,0.0178 6.71944,1.00285 12.19162,5.03039 12.31959,20.28717 0.21276,25.36797 -5.62027,2.35862 -12.52554,1.23133 -17.16959,-2.80295 l -2.72005,-2.3629 -87.05841,23.56771 c -47.88211,12.96225 -87.20133,23.63705 -87.37603,23.72179 -0.1747,0.0847 0.0478,1.68796 0.4944,3.56271 l 0.81206,3.40863 92.18863,0.009 c 79.01019,0.007 92.72628,0.11012 95.94969,0.72008 11.55062,2.18563 21.1648,10.47152 24.15485,20.8176 1.21703,4.21115 1.24615,124.93241 0.0311,129.0527 -2.95163,10.00938 -11.73675,17.92704 -22.84274,20.58724 -4.26721,1.02211 -223.91767,0.99786 -228.05545,-0.0252 z m 196.86037,-27.64562 c 11.1091,-2.83107 20.05804,-10.94753 23.45534,-21.27343 1.46929,-4.46589 1.24601,-11.53786 -0.52015,-16.47323 -5.18544,-14.49029 -21.82659,-23.41759 -37.94731,-20.35714 -22.36353,4.2456 -33.62963,26.76483 -22.17757,44.32958 7.55601,11.58911 23.12977,17.35728 37.18969,13.77422 z m -14.14944,-12.05489 c -7.91095,-1.95758 -13.71621,-8.88297 -13.74496,-16.39704 -0.0157,-4.08817 0.74568,-6.5849 2.9703,-9.74099 3.96007,-5.6182 9.864,-8.28076 17.53482,-7.90791 13.86942,0.67417 22.27263,13.94973 15.99769,25.27347 -4.03275,7.27748 -13.71568,11.00995 -22.75785,8.77247 z m -165.70671,10.0894 1.50695,-1.3012 v -25.34906 c 0,-27.90897 0.0942,-27.1054 -3.30508,-28.17342 -1.96164,-0.61632 -4.88605,0.30216 -5.78565,1.81713 -0.39469,0.66464 -0.58054,9.1056 -0.58054,26.36606 v 25.38843 l 1.4165,1.27663 c 1.94191,1.75017 4.70408,1.74012 6.74782,-0.0246 z m 20.55956,0.54289 c 0.70626,-0.41707 1.544,-1.43017 1.86162,-2.25135 0.38133,-0.98586 0.57749,-9.53371 0.57749,-25.16409 0,-26.45661 -0.002,-26.47286 -3.44736,-27.77027 -2.26858,-0.85427 -3.96147,-0.39966 -5.6298,1.51185 -1.15798,1.32677 -1.15877,1.34764 -1.01082,26.71157 l 0.14806,25.38376 1.50752,1.16843 c 1.74232,1.3504 4.1249,1.51345 5.99329,0.4101 z m 21.61738,-0.4101 1.50752,-1.16843 0.14806,-25.38376 c 0.14795,-25.36393 0.14716,-25.3848 -1.01082,-26.71157 -1.66833,-1.91151 -3.36122,-2.36612 -5.6298,-1.51185 -3.44588,1.29762 -3.44737,1.30963 -3.44737,27.81099 0,15.39277 0.19819,24.19008 0.56489,25.075 1.27382,3.07404 5.141,4.00284 7.86752,1.88962 z m 21.31409,-0.10821 1.4165,-1.27662 v -25.38844 c 0,-17.26046 -0.18586,-25.70141 -0.58054,-26.36606 -0.89961,-1.51497 -3.82401,-2.43345 -5.78565,-1.81713 -3.39884,1.06784 -3.30508,0.27029 -3.30508,28.11646 v 25.29211 l 1.44375,1.35815 c 1.95589,1.83995 4.8219,1.87424 6.81102,0.0815 z m 21.01651,0.12014 c 0.70576,-0.63607 1.43117,-1.88905 1.61201,-2.78439 0.18085,-0.89534 0.25731,-12.464 0.16993,-25.70815 l -0.15887,-24.08028 -1.40918,-1.26972 c -1.94112,-1.74902 -4.91181,-1.74901 -6.85293,2e-5 l -1.40917,1.26974 -0.14876,24.79596 c -0.15616,26.02852 -0.0985,26.76082 2.22289,28.22624 1.7346,1.095 4.49048,0.88769 5.97408,-0.44942 z m 21.45514,-0.33338 1.391,-1.48987 V 448.7761 c 0,-17.57269 -0.17965,-25.23379 -0.61175,-26.08851 -0.33645,-0.66552 -1.43347,-1.56148 -2.43781,-1.991 -1.7023,-0.72805 -1.96128,-0.72142 -3.82093,0.0977 -1.40458,0.61868 -2.18462,1.38021 -2.63614,2.57354 -0.68599,1.81297 -1.01828,46.3932 -0.36767,49.32511 0.8617,3.88302 5.81136,5.31336 8.4833,2.45146 z M 351.33872,372.03835 V 353.15298 H 282.83386 214.329 v 18.88537 18.88538 h 68.50486 68.50486 z m 73.60913,0 v -18.88537 h -31.43163 -31.43165 v 18.88537 18.88538 h 31.43165 31.43163 z"
     id="path3832"
     inkscape:connector-curvature="0" />
</svg>
