<?xml version="1.0" standalone="no"?>
<!DOCTYPE svg PUBLIC "-//W3C//DTD SVG 20010904//EN"
 "http://www.w3.org/TR/2001/REC-SVG-20010904/DTD/svg10.dtd">
<svg version="1.0" xmlns="http://www.w3.org/2000/svg"
 width="512.000000pt" height="512.000000pt" viewBox="0 0 512.000000 512.000000"
 preserveAspectRatio="xMidYMid meet">
<metadata>
Created by potrace 1.15, written by Peter Selinger 2001-2017
</metadata>
<g transform="translate(150.000000,370.000000) scale(0.04000,-0.04000)"
fill="#ffffff" stroke="none">
<path d="M2665 4723 c-607 -43 -1206 -279 -1680 -662 -76 -61 -317 -292 -312
-298 2 -2 120 33 263 77 142 44 264 80 271 80 7 0 17 -17 22 -37 5 -21 46
-182 91 -358 45 -176 84 -327 87 -335 4 -8 10 30 14 85 17 219 62 413 127 545
49 99 145 198 232 239 269 127 513 7 562 -276 30 -176 -64 -306 -221 -307
-164 -1 -264 161 -219 353 21 94 -32 93 -128 -3 -73 -73 -141 -204 -173 -336
-33 -129 -48 -411 -33 -600 10 -128 21 -188 77 -408 36 -141 72 -271 81 -288
36 -72 119 -77 337 -19 124 32 150 36 157 25 13 -21 43 -150 37 -156 -10 -10
-1211 -315 -1222 -310 -11 4 -50 154 -42 162 2 3 56 18 118 35 63 17 132 40
154 52 45 25 85 79 85 114 0 42 -331 1316 -357 1376 -32 72 -76 111 -141 126
-44 11 -62 10 -158 -14 -60 -14 -116 -28 -126 -31 -11 -3 -19 4 -25 22 -9 26
-13 22 -91 -96 -249 -372 -376 -791 -359 -1180 11 -249 62 -444 177 -675 141
-284 376 -536 670 -718 225 -139 536 -252 825 -301 342 -58 752 -44 1111 37
60 14 121 30 136 36 25 9 26 13 17 43 -43 151 -660 2600 -656 2604 12 12 440
114 447 107 4 -4 18 -51 30 -103 13 -52 25 -99 27 -103 3 -5 21 19 40 52 80
135 177 227 308 292 366 181 775 71 1003 -270 195 -291 244 -694 121 -999
-101 -254 -277 -416 -530 -488 -81 -24 -103 -26 -202 -21 -129 5 -216 31 -330
97 -38 22 -72 38 -75 36 -4 -5 263 -1065 271 -1073 3 -2 51 19 108 48 448 224
839 565 1089 949 118 181 229 433 274 620 50 211 69 484 46 666 -104 831 -782
1437 -1755 1570 -113 15 -462 25 -580 17z"/>
<path d="M3320 3316 c-212 -62 -321 -251 -307 -535 11 -234 101 -475 225 -604
141 -147 360 -167 517 -49 155 117 204 389 125 696 -59 230 -171 400 -312 472
-63 32 -175 41 -248 20z"/>
</g>
</svg>
